<svg width="500" height="500" viewBox="0 0 500 500" fill="none" xmlns="http://www.w3.org/2000/svg">
<path d="M488.89 246.17C483.71 192.47 456.74 138.9 433.48 109.31C334.86 -16.09 137 -15.85 42.6799 141.66C16.0899 186.08 -0.600114 284.85 19.1499 357.9C44.4199 451.4 144 487.81 254.74 487C358.21 486.15 439.57 441.16 470 379C489.09 340.13 494.07 299.87 488.89 246.17Z" fill="#37474F"/>
<path d="M42.6799 141.66C16.0899 186.08 -0.600114 284.85 19.1499 357.9C23.3148 373.585 30.0202 388.482 38.9999 402L149 338.53L242.7 284.44L462.76 157.32C453.6 138.32 443.22 121.7 433.49 109.32C334.86 -16.09 137 -15.85 42.6799 141.66Z" fill="#263238"/>
<path opacity="0.2" d="M305.54 326.27V313.93L287.72 303.64V291.3L269.9 281V268.67L252.09 258.38L175.09 300.38L195.09 311.87V324.21L212.91 334.49V346.84L230.73 357.12V369.47L308.79 482.28C386.09 469.23 445.1 429.87 470 379C472.88 373.12 475.443 367.197 477.69 361.23L305.54 326.27Z" fill="#FF5C00"/>
<path opacity="0.15" d="M195.78 85.7C143.68 115.7 101.44 196.1 101.44 265.32C101.44 306.45 116.36 334.38 139.44 343.98L148.97 338.48L242.67 284.39L252.44 278.75C275.35 242.7 290.16 197.75 290.16 156.75C290.12 87.55 247.89 55.73 195.78 85.7Z" fill="#FF5C00"/>
<path opacity="0.15" d="M195.78 105.72C152 130.92 116.51 198.48 116.51 256.65C116.51 314.82 152 341.56 195.78 316.38C239.56 291.2 275.06 223.61 275.06 165.44C275.06 107.27 239.57 80.53 195.78 105.72Z" fill="#FF5C00"/>
<path opacity="0.15" d="M195.78 119.83C158 141.65 127.37 200.17 127.37 250.54C127.37 300.91 158 324.08 195.78 302.27C233.56 280.46 264.19 221.93 264.19 171.55C264.19 121.17 233.57 98 195.78 119.83Z" fill="#FF5C00"/>
<path d="M155.44 252.93C155.44 209.29 181.98 158.59 214.71 139.68C229.14 131.36 242.35 130.59 252.62 136.07L239.31 128.37C228.91 122.37 215.31 122.87 200.47 131.45C167.72 150.36 141.19 201.06 141.19 244.7C141.19 268.59 149.14 285.41 161.71 292.65C163.86 293.88 171.85 298.51 175.11 300.39C163 292.88 155.44 276.28 155.44 252.93Z" fill="#FF5C00"/>
<path opacity="0.3" d="M155.44 252.93C155.44 209.29 181.98 158.59 214.71 139.68C229.14 131.36 242.35 130.59 252.62 136.07L239.31 128.37C228.91 122.37 215.31 122.87 200.47 131.45C167.72 150.36 141.19 201.06 141.19 244.7C141.19 268.59 149.14 285.41 161.71 292.65C163.86 293.88 171.85 298.51 175.11 300.39C163 292.88 155.44 276.28 155.44 252.93Z" fill="white"/>
<path d="M238 148.83C243.17 155.73 245.94 166.71 245.32 180.99C243.83 215.99 222.54 257.63 197.78 273.92C190.26 278.87 183.27 280.92 177.25 280.37C184.77 290.37 197.37 291.8 212.03 282.15C236.8 265.86 258.09 224.25 259.58 189.21C260.6 164.83 251.78 150.06 238 148.83Z" fill="#FF5C00"/>
<path opacity="0.15" d="M238 148.83C243.17 155.73 245.94 166.71 245.32 180.99C243.83 215.99 222.54 257.63 197.78 273.92C190.26 278.87 183.27 280.92 177.25 280.37C184.77 290.37 197.37 291.8 212.03 282.15C236.8 265.86 258.09 224.25 259.58 189.21C260.6 164.83 251.78 150.06 238 148.83Z" fill="black"/>
<path d="M170.54 159.55L184.79 167.78L185.93 166.25L171.68 158C171.29 158.53 170.92 159 170.54 159.55Z" fill="#FF5C00"/>
<path d="M164 207.21L149.7 199C149.5 199.55 149.31 200.12 149.12 200.68L163.37 208.91C163.57 208.33 163.75 207.76 164 207.21Z" fill="#FF5C00"/>
<path d="M229 124.74L243.26 133C243.84 133.1 244.42 133.2 244.99 133.32L230.73 125.09C230.16 124.94 229.58 124.83 229 124.74Z" fill="#FF5C00"/>
<path d="M157.45 231.38C157.56 230.76 157.68 230.13 157.8 229.51L143.55 221.28C143.42 221.9 143.3 222.52 143.19 223.15L157.45 231.38Z" fill="#FF5C00"/>
<path d="M184.55 143.55L198.8 151.78C199.29 151.31 199.8 150.84 200.28 150.39L186 142.16C185.53 142.61 185 143.08 184.55 143.55Z" fill="#FF5C00"/>
<path d="M157.52 272.52C157.39 271.97 157.27 271.41 157.15 270.85L157.04 270.6L142.86 262.41C142.99 263.05 143.12 263.68 143.27 264.3L157.52 272.52Z" fill="#FF5C00"/>
<path d="M216.57 125.11C215.97 125.23 215.35 125.39 214.74 125.54L229 133.77C229.62 133.61 230.24 133.47 230.85 133.35L216.57 125.11Z" fill="#FF5C00"/>
<path d="M215.6 139.2L201.35 131C201.05 131.17 200.76 131.31 200.47 131.48L199.6 132.01L213.85 140.24L214.71 139.71L215.6 139.2Z" fill="#FF5C00"/>
<path d="M158.46 179L172.71 187.23L173.55 185.67L159.3 177.44C159 177.94 158.73 178.46 158.46 179Z" fill="#FF5C00"/>
<path d="M163.57 288.22C163.25 287.67 162.95 287.12 162.64 286.55L148.4 278.33C148.7 278.9 149.02 279.45 149.34 280L163.57 288.22Z" fill="#FF5C00"/>
<path d="M141.19 244.86L155.44 253.1V252.93C155.44 252.32 155.44 251.69 155.44 251.07L141.18 242.84C141.18 243.46 141.18 244.09 141.18 244.7L141.19 244.86Z" fill="#FF5C00"/>
<path d="M214.71 139.68C181.98 158.59 155.44 209.29 155.44 252.93C155.44 296.57 181.98 316.64 214.71 297.74C247.44 278.84 274 228.14 274 184.49C274 140.84 247.45 120.78 214.71 139.68ZM259.55 189.21C258.06 224.21 236.77 265.85 212 282.14C187.23 298.43 168.38 283.24 169.87 248.21C171.36 213.18 192.67 171.57 217.42 155.28C242.17 138.99 261.05 154.18 259.55 189.21Z" fill="#FF5C00"/>
<g opacity="0.15">
<path d="M202.58 168.45C203.06 167.92 203.53 167.38 204.02 166.86L200.27 150.39C199.77 150.84 199.27 151.3 198.79 151.77L202.58 168.45Z" fill="black"/>
<path d="M213.84 140.2V157.86C214.42 157.41 215 156.97 215.59 156.55V139.19L214.71 139.68L213.84 140.2Z" fill="black"/>
<path d="M225.89 150.84C226.53 150.59 227.17 150.36 227.8 150.16L230.8 133.34C230.19 133.46 229.57 133.6 228.95 133.75L225.89 150.84Z" fill="black"/>
<path d="M177.57 211.61L178.2 209.95L164 207.2C163.8 207.76 163.6 208.32 163.41 208.88L177.57 211.61Z" fill="black"/>
<path d="M184.3 196L185.1 194.4L173.54 185.66L172.71 187.23L184.3 196Z" fill="black"/>
<path d="M271.57 163.53L259 175.32C259.1 176.02 259.19 176.73 259.27 177.47L272.08 165.47C271.89 164.83 271.74 164.17 271.57 163.53Z" fill="black"/>
<path d="M170.3 242.5L155.46 251.06C155.46 251.69 155.46 252.31 155.46 252.93V253.1L170.12 244.64C170.15 243.93 170.23 243.21 170.3 242.5Z" fill="black"/>
<path d="M172.7 228C172.85 227.37 173.01 226.74 173.16 226.1L157.79 229.49C157.67 230.11 157.55 230.74 157.44 231.36L172.7 228Z" fill="black"/>
<path d="M237.7 148.82C238.31 148.87 238.9 148.94 239.48 149.04L245 133.27C244.42 133.15 243.84 133.04 243.25 132.94L237.7 148.82Z" fill="black"/>
<path d="M255.14 161.94C255.42 162.53 255.69 163.15 255.95 163.78L266.25 149.91C265.94 149.35 265.61 148.81 265.25 148.28L255.14 161.94Z" fill="black"/>
<path d="M247.86 152.65C248.33 153.01 248.79 153.39 249.24 153.8L257 138.94C256.53 138.57 256.06 138.22 255.57 137.88L247.86 152.65Z" fill="black"/>
<path d="M192.67 181.44L193.75 179.81L185.92 166.24L184.78 167.78L192.67 181.44Z" fill="black"/>
<path d="M227.15 268.63C226.68 269.18 226.15 269.71 225.72 270.23L229.47 286.75C229.97 286.3 230.47 285.81 230.95 285.34L227.15 268.63Z" fill="black"/>
<path d="M245.74 240.22C245.48 240.76 245.21 241.29 244.94 241.82L256.53 250.58L257.34 248.99L245.74 240.22Z" fill="black"/>
<path d="M237.28 255.2L236.2 256.84L244.05 270.44C244.43 269.93 244.82 269.44 245.19 268.91L237.28 255.2Z" fill="black"/>
<path d="M252.42 224.23C252.22 224.79 252.03 225.35 251.82 225.9L266.02 228.64C266.22 228.08 266.41 227.52 266.6 226.96L252.42 224.23Z" fill="black"/>
<path d="M257.11 207.64C256.98 208.27 256.85 208.9 256.7 209.52L272 206.17C272.11 205.54 272.21 204.92 272.32 204.3L257.11 207.64Z" fill="black"/>
<path d="M274 182.65L259.44 191C259.44 191.7 259.35 192.4 259.3 193.11L274 184.66V184.49C274 183.87 274 183.26 274 182.65Z" fill="black"/>
<path d="M215.59 297.21V279.57C215.01 280.02 214.42 280.46 213.84 280.88V298.24L214.71 297.74C215 297.57 215.3 297.38 215.59 297.21Z" fill="black"/>
<path d="M173.81 274.44C173.54 273.83 173.28 273.2 173.03 272.54L162.64 286.54C162.94 287.11 163.26 287.67 163.58 288.21L173.81 274.44Z" fill="black"/>
<path d="M180.94 284.29C180.48 283.91 180.03 283.51 179.59 283.08L171.79 298C172.25 298.38 172.72 298.74 173.2 299.09L180.94 284.29Z" fill="black"/>
<path d="M203.2 286.73C202.56 286.97 201.93 287.18 201.3 287.38L198.3 304.15C198.92 304.03 199.54 303.9 200.16 303.75L203.2 286.73Z" fill="black"/>
<path d="M191.15 288.56C190.55 288.5 189.97 288.41 189.39 288.3L183.93 304C184.51 304.14 185.09 304.25 185.67 304.35L191.15 288.56Z" fill="black"/>
<path d="M170.27 260.61C170.19 259.89 170.12 259.15 170.06 258.4L157.06 270.53C157.2 271.2 157.34 271.86 157.49 272.53L170.27 260.61Z" fill="black"/>
</g>
<path d="M230.71 369.48L162.97 330.37V293.34L177.23 301.57L195.07 311.88V324.22L212.89 334.5V346.85L230.71 357.13V369.48Z" fill="#263238"/>
<path d="M177.25 301.59L252.09 258.38L269.9 268.67L195.07 311.88L177.25 301.59Z" fill="#455A64"/>
<path d="M195.07 311.88V324.22L269.9 281.01V268.67L195.07 311.88Z" fill="#37474F"/>
<path d="M195.07 324.22L269.9 281.01L287.72 291.3L212.89 334.5L195.07 324.22Z" fill="#455A64"/>
<path d="M212.89 334.5V346.85L287.72 303.64V291.3L212.89 334.5Z" fill="#37474F"/>
<path d="M212.89 346.85L287.72 303.64L305.54 313.93L230.71 357.13L212.89 346.85Z" fill="#455A64"/>
<path d="M230.71 357.13V369.48L305.54 326.27V313.93L230.71 357.13Z" fill="#37474F"/>
<path d="M252.14 185C250.65 220 229.35 261.64 204.59 277.94C195.39 283.99 187.01 285.7 180.17 283.65C173.17 277.26 169.17 265.02 169.87 248.23C171.37 213.23 192.67 171.59 217.42 155.3C226.63 149.24 235.03 147.54 241.86 149.6C248.9 156 252.86 168.2 252.14 185Z" fill="#FF5C00"/>
<path opacity="0.9" d="M252.14 185C250.65 220 229.35 261.64 204.59 277.94C195.39 283.99 187.01 285.7 180.17 283.65C173.17 277.26 169.17 265.02 169.87 248.23C171.37 213.23 192.67 171.59 217.42 155.3C226.63 149.24 235.03 147.54 241.86 149.6C248.9 156 252.86 168.2 252.14 185Z" fill="white"/>
<path opacity="0.1" d="M204.48 260C196.75 260.895 189.597 264.531 184.32 270.25C181.469 273.31 179.144 276.821 177.44 280.64C178.263 281.716 179.176 282.72 180.17 283.64C181.642 284.07 183.159 284.332 184.69 284.42C185.09 283.42 185.39 282.37 185.74 281.36C187.469 276.657 190.551 272.571 194.597 269.615C198.644 266.66 203.474 264.967 208.48 264.75C211.91 264.66 215.31 265.28 218.72 265.55C220.07 264.06 221.39 262.55 222.72 260.91C216.68 260.6 210.45 259.4 204.48 260ZM203 208.79C210 209.7 217.64 210.09 223.76 206.51C230.69 202.45 233.98 194.4 237.32 187.11C240.43 180.34 244.68 173.19 251.47 170.57C250.06 161.1 246.68 153.97 241.85 149.57C238.556 148.622 235.083 148.475 231.72 149.14C228.332 153.019 225.864 157.614 224.5 162.58C222.9 168.18 222.34 174.13 219.77 179.34C217.153 184.578 212.71 188.679 207.28 190.87C203 192.57 198.35 192.98 193.8 193.68C190.626 194.149 187.488 194.837 184.41 195.74C182.035 200.458 179.918 205.302 178.07 210.25C179.298 209.622 180.575 209.097 181.89 208.68C188.68 206.59 196 207.89 203 208.79ZM210.16 173.79C212.4 169.92 213.16 165.41 214.39 161.1C214.83 159.49 215.39 157.92 215.91 156.35C214.31 157.477 212.723 158.703 211.15 160.03C208.89 165.52 206.69 171.03 202.52 175.17C200.394 177.252 197.857 178.867 195.07 179.91C194.543 180.086 194.001 180.21 193.45 180.28C192.43 181.78 191.43 183.313 190.45 184.88C192.706 184.699 194.942 184.318 197.13 183.74C202.548 182.114 207.185 178.565 210.17 173.76L210.16 173.79ZM252.16 179.86C250.204 180.874 248.433 182.209 246.92 183.81C243.2 187.89 241.2 193.18 238.92 198.22C235.74 205.4 231.59 212.71 224.68 216.43C220.08 218.9 214.68 219.52 209.51 219.66C199.66 219.93 189.66 218.66 180.03 220.77C177.954 221.223 175.925 221.87 173.97 222.7C173.303 225.093 172.72 227.477 172.22 229.85C174.462 228.663 176.835 227.74 179.29 227.1C193.52 223.5 209.29 231.4 222.92 226.1C232.92 222.19 239.01 212.26 243.92 202.72C245.92 198.83 248.07 194.72 251.52 192.14C251.787 189.76 251.973 187.4 252.08 185.06C252.21 183.21 252.23 181.5 252.2 179.83L252.16 179.86ZM216.66 238.15C208.96 238.43 201.27 237.71 193.57 237.6C189.625 237.385 185.67 237.79 181.85 238.8C178.506 239.931 175.361 241.581 172.53 243.69C171.66 244.31 170.82 244.95 169.99 245.6C169.93 246.49 169.87 247.37 169.83 248.24C169.4 258.39 170.69 266.86 173.32 273.4C175.02 271.925 176.531 270.245 177.82 268.4C183.11 261.25 188.21 253.34 196.23 249.51C204.84 245.4 214.99 246.87 224.35 244.99C228.444 244.154 232.378 242.665 236 240.58C237.48 237.807 238.877 234.98 240.19 232.1C239.79 232.34 239.38 232.57 238.97 232.8C232.2 236.51 224.39 237.84 216.7 238.12L216.66 238.15Z" fill="#FF5C00"/>
<path d="M269.61 123.37C269.61 126.77 268.97 129.79 264.81 130.52C269.07 130.7 269.37 133.52 269.61 137.46C269.75 133.55 270.12 130.7 273.98 130.52C270 129.86 269.61 126.77 269.61 123.37Z" fill="#FF5C00"/>
<path d="M172.55 304.38C172.55 307.78 171.91 310.8 167.75 311.53C172.01 311.71 172.31 314.53 172.55 318.47C172.69 314.55 173.06 311.71 176.92 311.53C172.92 310.86 172.55 307.78 172.55 304.38Z" fill="#FF5C00"/>
<path d="M141.28 199.62C141.28 201.11 141 202.42 139.18 202.74C141.04 202.82 141.18 204.07 141.28 205.74C141.34 204.03 141.5 202.74 143.19 202.74C141.44 202.45 141.28 201.11 141.28 199.62Z" fill="#FF5C00"/>
<path d="M133.1 205.47C133.1 208.86 132.45 211.88 128.3 212.61C132.56 212.79 132.86 215.61 133.1 219.56C133.23 215.64 133.6 212.8 137.47 212.61C133.47 212 133.1 208.86 133.1 205.47Z" fill="#E0E0E0"/>
<path d="M129.2 188.43C129.2 190.18 128.87 191.72 126.74 192.1C128.92 192.19 129.08 193.65 129.2 195.66C129.27 193.66 129.46 192.19 131.45 192.1C129.39 191.76 129.2 190.18 129.2 188.43Z" fill="#E0E0E0"/>
<path d="M258.06 113.15C258.06 115.15 258.01 117.05 255.14 117.5C258.14 117.5 257.94 119.37 258.09 121.77C258.17 119.37 258.38 117.65 260.75 117.54C258.3 117.13 258.37 116 258.06 113.15Z" fill="#E0E0E0"/>
<path d="M283 205.7C282.79 209.45 282.49 211.07 279.1 211.52C282.55 211.71 282.84 214 283.04 217.19C283.15 214 283.43 211.68 286.58 211.52C283.34 211 283.26 209.5 283 205.7Z" fill="#E0E0E0"/>
<path d="M158.77 304.41C158.65 306.6 158.48 307.54 156.5 307.81C158.5 307.92 158.68 309.24 158.8 311.1C158.86 309.24 159.02 307.89 160.86 307.81C159 307.49 158.92 306.63 158.77 304.41Z" fill="#E0E0E0"/>
<path d="M275.92 119.89C275.92 121.1 275.92 122.26 274.15 122.53C275.99 122.53 275.85 123.66 275.94 125.11C275.99 123.66 276.11 122.62 277.54 122.55C276.06 122.3 276.1 121.62 275.92 119.89Z" fill="#E0E0E0"/>
<path d="M279.69 216.6C279.69 217.8 279.69 218.96 277.92 219.23C279.75 219.23 279.61 220.37 279.7 221.82C279.75 220.37 279.88 219.32 281.31 219.26C279.83 219 279.87 218.32 279.69 216.6Z" fill="#E0E0E0"/>
<path d="M168 299.64C168 300.84 168 302 166.23 302.27C168.07 302.27 167.93 303.4 168.02 304.85C168.07 303.4 168.2 302.36 169.63 302.29C168.17 302.05 168.21 301.36 168 299.64Z" fill="#E0E0E0"/>
<path d="M367.25 289.58L398.74 271.4L446.28 298.84L469.09 285.67L421.56 258.23L437 249.31L412 234.86L396.56 243.78L369 227.89L346.18 241.07L373.71 257L315 290.84L333.37 301.44L481.55 341.22L484.43 339.56C485.843 333.88 487.013 328.083 487.94 322.17L367.25 289.58Z" fill="#263238"/>
<path d="M370.21 150.09L369.03 150.77V112.35L354.77 104.12L337.13 114.3L351.68 59.6L337.43 51.37L312.9 65.53L273.26 213.75V235L287.51 243.23L332 217.53V232.84L346.26 241.07L369 227.89V196.13L384.43 187.22V158.32L370.21 150.09ZM332 172.18L319.93 179.18L332 133.76V172.18Z" fill="#FF5C00"/>
<path opacity="0.3" d="M370.21 150.09L369.03 150.77V112.35L354.77 104.12L337.13 114.3L351.68 59.6L337.43 51.37L312.9 65.53L273.26 213.75V235L287.51 243.23L332 217.53V232.84L346.26 241.07L369 227.89V196.13L384.43 187.22V158.32L370.21 150.09ZM332 172.18L319.93 179.18L332 133.76V172.18Z" fill="black"/>
<path d="M369.02 167.23V112.35L346.21 125.52V180.41L314.71 198.59L351.68 59.6L327.15 73.76L287.51 221.98V243.19L346.21 209.31V241.07L369.02 227.89V196.13L384.46 187.22V158.32L369.02 167.23Z" fill="#FF5C00"/>
<path opacity="0.3" d="M369.02 167.23V112.35L346.21 125.52V180.41L314.71 198.59L351.68 59.6L327.15 73.76L287.51 221.98V243.19L346.21 209.31V241.07L369.02 227.89V196.13L384.46 187.22V158.32L369.02 167.23Z" fill="white"/>
<path d="M351.68 59.6L337.43 51.37L312.9 65.53L327.15 73.76L351.68 59.6Z" fill="#FF5C00"/>
<path opacity="0.5" d="M351.68 59.6L337.43 51.37L312.9 65.53L327.15 73.76L351.68 59.6Z" fill="white"/>
<path d="M354.77 104.12L369.02 112.35L346.21 125.52L335.75 119.48L337.13 114.3L354.77 104.12Z" fill="#FF5C00"/>
<path opacity="0.5" d="M354.77 104.12L369.02 112.35L346.21 125.52L335.75 119.48L337.13 114.3L354.77 104.12Z" fill="white"/>
<path d="M346.21 180.41L331.95 172.18L319.88 179.15L314.71 198.59L346.21 180.41Z" fill="#FF5C00"/>
<path opacity="0.5" d="M346.21 180.41L331.95 172.18L319.88 179.15L314.71 198.59L346.21 180.41Z" fill="white"/>
<path d="M384.46 158.32L370.21 150.09L369.02 150.77V167.23L384.46 158.32Z" fill="#FF5C00"/>
<path opacity="0.5" d="M369.02 167.23L384.46 158.32L370.21 150.09L369.02 150.77V167.23Z" fill="white"/>
<path d="M287.51 221.98L273.26 213.75L312.9 65.53L327.15 73.76L287.51 221.98Z" fill="#FF5C00"/>
<path opacity="0.15" d="M287.51 221.98L273.26 213.75L312.9 65.53L327.15 73.76L287.51 221.98Z" fill="black"/>
<path d="M205.45 383L180.42 368.55L164.99 377.46L137.48 361.58L114.66 374.75L142.17 390.63L83.4697 424.52L101.84 435.13L250.03 474.91L274.56 460.75L135.7 423.27L167.2 405.08L214.73 432.53L237.55 419.35L190.01 391.91L205.45 383Z" fill="#263238"/>
<path d="M138.66 283.77L137.48 284.46V246L123.22 237.77L105.58 248L120.13 193.3L105.88 185.07L81.35 199.21L41.71 347.44V368.65L56 376.88L100.45 351.22V366.52L114.7 374.75L137.52 361.58V329.81L152.95 320.9V292L138.66 283.77ZM100.41 305.86L88.34 312.86L100.41 267.48V305.86Z" fill="#FF5C00"/>
<path opacity="0.3" d="M138.66 283.77L137.48 284.46V246L123.22 237.77L105.58 248L120.13 193.3L105.88 185.07L81.35 199.21L41.71 347.44V368.65L56 376.88L100.45 351.22V366.52L114.7 374.75L137.52 361.58V329.81L152.95 320.9V292L138.66 283.77ZM100.41 305.86L88.34 312.86L100.41 267.48V305.86Z" fill="black"/>
<path d="M137.48 300.92V246.03L114.66 259.2V314.09L83.16 332.27L120.14 193.28L95.61 207.44L55.96 355.66V376.88L114.66 342.99V374.75L137.48 361.58V329.81L152.91 320.9V292L137.48 300.92Z" fill="#FF5C00"/>
<path opacity="0.3" d="M137.48 300.92V246.03L114.66 259.2V314.09L83.16 332.27L120.14 193.28L95.61 207.44L55.96 355.66V376.88L114.66 342.99V374.75L137.48 361.58V329.81L152.91 320.9V292L137.48 300.92Z" fill="white"/>
<path d="M120.14 193.28L105.88 185.05L81.3501 199.21L95.6101 207.44L120.14 193.28Z" fill="#FF5C00"/>
<path opacity="0.5" d="M120.14 193.28L105.88 185.05L81.3501 199.21L95.6101 207.44L120.14 193.28Z" fill="white"/>
<path d="M123.22 237.8L137.48 246.03L114.66 259.2L104.2 253.17L105.58 247.99L123.22 237.8Z" fill="#FF5C00"/>
<path opacity="0.5" d="M123.22 237.8L137.48 246.03L114.66 259.2L104.2 253.17L105.58 247.99L123.22 237.8Z" fill="white"/>
<path d="M114.66 314.09L100.41 305.86L88.3401 312.83L83.1602 332.27L114.66 314.09Z" fill="#FF5C00"/>
<path opacity="0.5" d="M114.66 314.09L100.41 305.86L88.3401 312.83L83.1602 332.27L114.66 314.09Z" fill="white"/>
<path d="M152.91 292L138.66 283.77L137.48 284.46V300.92L152.91 292Z" fill="#FF5C00"/>
<path opacity="0.5" d="M137.48 300.92L152.91 292L138.66 283.77L137.48 284.46V300.92Z" fill="white"/>
<path d="M55.96 355.66L41.71 347.44L81.35 199.21L95.61 207.44L55.96 355.66Z" fill="#FF5C00"/>
<path opacity="0.15" d="M55.96 355.66L41.71 347.44L81.35 199.21L95.61 207.44L55.96 355.66Z" fill="black"/>
<path d="M153.37 113.46C153.95 110.72 142.78 117.17 142.2 119.91L145.8 129.6C145.921 129.891 146.131 130.136 146.4 130.3C147.19 130.79 150.1 132.43 150.35 132.58C150.551 132.705 150.778 132.783 151.013 132.807C151.249 132.831 151.487 132.801 151.709 132.719C151.931 132.637 152.131 132.505 152.294 132.334C152.458 132.162 152.579 131.956 152.65 131.73L157.32 115.73C157.61 114.39 153.37 113.46 153.37 113.46Z" fill="#FF5C00"/>
<path opacity="0.25" d="M153.37 113.46C153.95 110.72 142.78 117.17 142.2 119.91L145.8 129.6C145.921 129.891 146.131 130.136 146.4 130.3C147.19 130.79 150.1 132.43 150.35 132.58C150.551 132.705 150.778 132.783 151.013 132.807C151.249 132.831 151.487 132.801 151.709 132.719C151.931 132.637 152.131 132.505 152.294 132.334C152.458 132.162 152.579 131.956 152.65 131.73L157.32 115.73C157.61 114.39 153.37 113.46 153.37 113.46Z" fill="black"/>
<path d="M191.35 59.9999L98.1502 113.76C97.7159 114.047 97.3549 114.431 97.0962 114.883C96.8374 115.334 96.6881 115.84 96.6602 116.36V146.77C96.6868 147.29 96.8367 147.796 97.0975 148.246C97.3583 148.696 97.7226 149.078 98.1602 149.36L99.0901 149.9C99.5556 150.134 100.069 150.256 100.59 150.256C101.111 150.256 101.625 150.134 102.09 149.9L195.29 95.9999C195.727 95.7176 196.091 95.3356 196.352 94.8854C196.612 94.4352 196.763 93.9295 196.79 93.41V63.0799C196.764 62.5602 196.614 62.0542 196.353 61.6039C196.092 61.1535 195.728 60.7717 195.29 60.4899L194.35 59.9499C193.881 59.7237 193.365 59.6104 192.844 59.6191C192.323 59.6278 191.812 59.7582 191.35 59.9999Z" fill="#FF5C00"/>
<path opacity="0.25" d="M191.35 59.9999L98.1502 113.76C97.7159 114.047 97.3549 114.431 97.0962 114.883C96.8374 115.334 96.6881 115.84 96.6602 116.36V146.77C96.6868 147.29 96.8367 147.796 97.0975 148.246C97.3583 148.696 97.7226 149.078 98.1602 149.36L99.0901 149.9C99.5556 150.134 100.069 150.256 100.59 150.256C101.111 150.256 101.625 150.134 102.09 149.9L195.29 95.9999C195.727 95.7176 196.091 95.3356 196.352 94.8854C196.612 94.4352 196.763 93.9295 196.79 93.41V63.0799C196.764 62.5602 196.614 62.0542 196.353 61.6039C196.092 61.1535 195.728 60.7717 195.29 60.4899L194.35 59.9499C193.881 59.7237 193.365 59.6104 192.844 59.6191C192.323 59.6278 191.812 59.7582 191.35 59.9999Z" fill="black"/>
<path d="M196.79 63.0799V63.6699C196.791 63.4273 196.728 63.1887 196.607 62.9782C196.487 62.7678 196.312 62.5929 196.103 62.4712C195.893 62.3495 195.654 62.2853 195.412 62.285C195.169 62.2848 194.931 62.3486 194.72 62.4699L102.66 115.65C102.031 116.009 101.51 116.531 101.15 117.16L97.1504 114.82C97.4028 114.351 97.7756 113.957 98.2304 113.68L191.35 59.9999C191.816 59.766 192.329 59.6442 192.85 59.6442C193.371 59.6442 193.885 59.766 194.35 59.9999L195.29 60.5399C195.721 60.8168 196.082 61.1907 196.342 61.6318C196.603 62.0729 196.756 62.5688 196.79 63.0799Z" fill="#FF5C00"/>
<path opacity="0.45" d="M196.79 63.0799V63.6699C196.791 63.4273 196.728 63.1887 196.607 62.9782C196.487 62.7678 196.312 62.5929 196.103 62.4712C195.893 62.3495 195.654 62.2853 195.412 62.285C195.169 62.2848 194.931 62.3486 194.72 62.4699L102.66 115.65C102.031 116.009 101.51 116.531 101.15 117.16L97.1504 114.82C97.4028 114.351 97.7756 113.957 98.2304 113.68L191.35 59.9999C191.816 59.766 192.329 59.6442 192.85 59.6442C193.371 59.6442 193.885 59.766 194.35 59.9999L195.29 60.5399C195.721 60.8168 196.082 61.1907 196.342 61.6318C196.603 62.0729 196.756 62.5688 196.79 63.0799Z" fill="white"/>
<path d="M195.41 62.8199C195.262 62.8197 195.116 62.8613 194.99 62.9399L102.93 116.12C102.385 116.436 101.933 116.889 101.619 117.435C101.305 117.981 101.139 118.6 101.14 119.23V148.31C101.14 148.6 101.14 149.25 101.74 149.25C101.975 149.238 102.202 149.166 102.4 149.04L147.12 123.21L150.12 131.49C150.247 131.779 150.459 132.023 150.727 132.189C150.996 132.355 151.308 132.436 151.623 132.421C151.939 132.405 152.242 132.295 152.493 132.104C152.744 131.913 152.931 131.65 153.03 131.35L157.03 117.47L194.43 95.8799C195.68 95.1699 196.23 94.4399 196.23 93.5299V63.6699C196.23 63.4496 196.145 63.2378 195.992 63.0793C195.839 62.9207 195.63 62.8277 195.41 62.8199Z" fill="#263238"/>
<path d="M101.74 149.79C101.05 149.79 100.6 149.21 100.6 148.31V119.23C100.601 118.507 100.791 117.796 101.153 117.17C101.514 116.543 102.034 116.022 102.66 115.66L194.72 62.4799C194.928 62.3547 195.167 62.289 195.41 62.2899C195.775 62.2925 196.125 62.4388 196.383 62.697C196.641 62.9552 196.787 63.3047 196.79 63.6699V93.5299C196.731 94.1428 196.507 94.7283 196.143 95.2246C195.779 95.721 195.287 96.1097 194.72 96.3499L157.51 117.83L153.51 131.5C153.384 131.909 153.135 132.269 152.797 132.53C152.458 132.791 152.047 132.942 151.62 132.96C151.2 132.977 150.784 132.867 150.427 132.644C150.07 132.421 149.789 132.095 149.62 131.71L146.83 124L102.67 149.51C102.39 149.684 102.069 149.78 101.74 149.79ZM195.41 63.3599C195.361 63.3463 195.309 63.3463 195.26 63.3599L103.2 116.58C102.736 116.85 102.351 117.237 102.083 117.701C101.814 118.166 101.672 118.693 101.67 119.23V148.31C101.662 148.454 101.689 148.599 101.75 148.73C101.885 148.704 102.014 148.653 102.13 148.58L147.4 122.43L150.6 131.31C150.678 131.507 150.817 131.674 150.996 131.786C151.176 131.899 151.386 131.952 151.598 131.938C151.809 131.923 152.01 131.842 152.172 131.706C152.335 131.57 152.449 131.386 152.5 131.18L156.6 117.12L156.78 117.01L194.18 95.4199C195.53 94.6399 195.72 94.0299 195.72 93.5299V63.6699C195.718 63.5885 195.684 63.5111 195.627 63.4535C195.569 63.3959 195.492 63.3624 195.41 63.3599Z" fill="#FF5C00"/>
<path opacity="0.3" d="M109.74 138C109.15 138 108.45 137.59 108.45 136.42V121.92C108.428 121.49 108.524 121.062 108.729 120.682C108.933 120.303 109.238 119.988 109.61 119.77L109.95 119.57C110.205 119.42 110.494 119.337 110.79 119.33C111.086 119.335 111.373 119.435 111.609 119.615C111.845 119.795 112.017 120.045 112.1 120.33L113.8 124.58V118.85C113.779 118.42 113.876 117.992 114.08 117.613C114.285 117.234 114.589 116.918 114.96 116.7L115.15 116.59C115.397 116.439 115.68 116.356 115.97 116.35C116.258 116.349 116.537 116.448 116.759 116.631C116.982 116.813 117.134 117.068 117.19 117.35C117.273 117.079 117.377 116.815 117.5 116.56L118.05 115.56C118.315 115.014 118.731 114.556 119.25 114.24L122.56 112.33C122.84 112.158 123.161 112.065 123.49 112.06C123.855 112.057 124.21 112.185 124.49 112.42C124.513 112.036 124.63 111.665 124.831 111.337C125.031 111.009 125.309 110.735 125.64 110.54L131.02 107.44C131.265 107.283 131.549 107.197 131.84 107.19C132.44 107.19 133.13 107.61 133.13 108.8V109C133.147 109.423 133.048 109.842 132.844 110.212C132.639 110.583 132.337 110.89 131.97 111.1L130.75 111.81C130.67 111.81 130.54 111.93 130.54 112.31V124.73C130.562 125.159 130.467 125.586 130.264 125.965C130.061 126.344 129.759 126.66 129.39 126.88L129.2 126.99C128.951 127.138 128.669 127.221 128.38 127.23C127.75 127.23 127.09 126.81 127.09 125.63V113.94L126.59 114.23C126.341 114.387 126.054 114.474 125.76 114.48H125.7V126.16C125.693 126.773 125.542 127.376 125.26 127.92L124.71 128.98C124.445 129.523 124.028 129.978 123.51 130.29L120.22 132.19C119.92 132.377 119.573 132.474 119.22 132.47C118.883 132.471 118.555 132.358 118.29 132.15L117.72 131.73C117.499 131.559 117.324 131.335 117.21 131.08V132.45C117.23 132.876 117.132 133.299 116.928 133.673C116.723 134.047 116.419 134.357 116.05 134.57L115.86 134.68C115.608 134.838 115.318 134.925 115.02 134.93C114.725 134.923 114.44 134.822 114.207 134.642C113.973 134.462 113.803 134.213 113.72 133.93L111.86 129.33V135.48C111.88 135.907 111.782 136.331 111.577 136.707C111.373 137.082 111.069 137.395 110.7 137.61L110.51 137.72C110.281 137.877 110.016 137.973 109.74 138ZM120.74 117.61C120.67 117.61 120.54 117.73 120.54 118.09V127.75L122.08 126.87C122.15 126.87 122.28 126.75 122.28 126.39V116.73L120.74 117.61ZM136.29 122.69C135.7 122.69 135 122.28 135 121.11V106.63C134.982 106.203 135.081 105.78 135.285 105.405C135.49 105.029 135.792 104.717 136.16 104.5L141.53 101.41C141.775 101.252 142.059 101.165 142.35 101.16C142.599 101.158 142.843 101.233 143.049 101.374C143.255 101.516 143.412 101.716 143.5 101.95C143.56 101.782 143.63 101.619 143.71 101.46L144.26 100.46C144.522 99.9118 144.939 99.4528 145.46 99.1399L148.77 97.2299C149.05 97.0571 149.371 96.9638 149.7 96.9599C150.064 96.9538 150.419 97.0779 150.7 97.3099L151.21 97.6999C151.435 97.8738 151.613 98.1005 151.73 98.3599V96.9399C151.71 96.5128 151.808 96.0884 152.012 95.7129C152.217 95.3374 152.52 95.0251 152.89 94.8099L153.08 94.6999C153.327 94.5489 153.61 94.4661 153.9 94.4599C154.49 94.4599 155.19 94.8699 155.19 96.0399V107.77L156.72 106.88C156.8 106.88 156.93 106.76 156.93 106.38V93.9399C156.901 93.5216 156.985 93.1032 157.173 92.7285C157.362 92.3538 157.647 92.0365 158 91.8099L158.19 91.6999C158.437 91.5489 158.72 91.4661 159.01 91.4599C159.233 91.4574 159.451 91.5169 159.642 91.6317C159.833 91.7465 159.988 91.9121 160.09 92.1099C160.068 91.6797 160.164 91.2515 160.369 90.8723C160.573 90.4932 160.878 90.1775 161.25 89.9599L161.59 89.7699C161.838 89.6113 162.125 89.5248 162.42 89.5199C162.718 89.523 163.007 89.6218 163.245 89.8019C163.483 89.982 163.656 90.2337 163.74 90.5199L165.44 94.7699V88.9999C165.419 88.5713 165.517 88.1453 165.721 87.768C165.926 87.3908 166.23 87.0767 166.6 86.8599L166.78 86.7499C167.026 86.594 167.309 86.5076 167.6 86.4999C167.826 86.4986 168.048 86.5606 168.241 86.6791C168.433 86.7975 168.589 86.9675 168.69 87.1699C168.667 86.7321 168.767 86.2966 168.979 85.9129C169.191 85.5292 169.507 85.2129 169.89 84.9999L174.23 82.4999C174.513 82.3255 174.837 82.2289 175.17 82.2199C175.535 82.2192 175.889 82.3466 176.17 82.5799L176.68 82.9699C176.923 83.1716 177.116 83.4281 177.241 83.7184C177.366 84.0086 177.42 84.3245 177.4 84.6399V96.3199C177.392 96.9359 177.241 97.5417 176.96 98.0899L176.41 99.0899C176.141 99.6364 175.721 100.094 175.2 100.41L170.84 103C170.591 103.148 170.309 103.231 170.02 103.24C169.796 103.244 169.575 103.186 169.382 103.071C169.189 102.956 169.033 102.789 168.93 102.59C168.95 103.016 168.853 103.439 168.65 103.814C168.448 104.19 168.147 104.503 167.78 104.72L167.59 104.82C167.335 104.98 167.041 105.067 166.74 105.07C166.454 105.065 166.177 104.972 165.947 104.804C165.716 104.635 165.542 104.4 165.45 104.13L163.58 99.5199V105.68C163.599 106.104 163.502 106.526 163.299 106.899C163.096 107.273 162.796 107.584 162.43 107.8L162.24 107.91C161.991 108.067 161.704 108.154 161.41 108.16C161.122 108.161 160.843 108.061 160.62 107.879C160.398 107.696 160.246 107.442 160.19 107.16C160.116 107.426 160.016 107.684 159.89 107.93L159.34 108.93C159.081 109.485 158.664 109.952 158.14 110.27L154.85 112.17C154.566 112.34 154.241 112.433 153.91 112.44C153.546 112.444 153.192 112.32 152.91 112.09L152.38 111.69C152.158 111.513 151.98 111.287 151.86 111.03C151.852 111.64 151.701 112.239 151.42 112.78L150.87 113.78C150.605 114.326 150.188 114.784 149.67 115.1L146.38 117C146.077 117.18 145.732 117.276 145.38 117.28C145.04 117.279 144.71 117.167 144.44 116.96L143.88 116.53C143.636 116.328 143.444 116.072 143.319 115.781C143.194 115.491 143.139 115.175 143.16 114.86V112.04C142.965 112.347 142.697 112.601 142.38 112.78L138.56 114.99C138.48 115.04 138.36 115.11 138.36 115.47V120.14C138.38 120.567 138.282 120.991 138.077 121.367C137.873 121.742 137.569 122.055 137.2 122.27L137.01 122.38C136.791 122.548 136.533 122.658 136.26 122.7L136.29 122.69ZM146.92 102.5C146.84 102.5 146.72 102.62 146.72 102.98V112.64L148.25 111.75C148.33 111.75 148.46 111.63 148.46 111.27V101.61L146.92 102.5ZM143.26 104.36C143.068 104.672 142.799 104.93 142.48 105.11L138.66 107.31C138.58 107.36 138.46 107.43 138.46 107.79V110.91L141.53 109.14C141.775 108.982 142.059 108.895 142.35 108.89C142.522 108.888 142.693 108.924 142.85 108.995C143.007 109.066 143.147 109.17 143.26 109.3V104.36ZM172.42 87.8199C172.33 87.8199 172.22 87.9399 172.22 88.2999V97.9099L173.75 97.0299C173.83 97.0299 173.96 96.9099 173.96 96.5499V86.9999L172.42 87.8199ZM186.71 95.5999C186.409 95.598 186.117 95.4999 185.876 95.32C185.635 95.1401 185.457 94.8877 185.37 94.5999L184.43 92.1499C184.289 91.7799 184.194 91.3935 184.15 90.9999L183.57 86.4399C183.57 86.0699 183.57 85.8599 183.57 85.7699C183.57 85.6799 183.57 85.4299 183.57 85.1099L184.15 79.8399C184.201 79.3846 184.285 78.9334 184.4 78.4899L185.35 74.9299C185.434 74.5812 185.586 74.2525 185.797 73.9625C186.008 73.6726 186.274 73.427 186.58 73.2399L186.92 73.0499C187.169 72.8927 187.456 72.8063 187.75 72.7999H187.96H188.13C188.384 72.8929 188.6 73.0663 188.747 73.2938C188.893 73.5213 188.961 73.7903 188.94 74.0599C188.941 74.3067 188.907 74.5524 188.84 74.7899L187.84 78.1699C187.738 78.5197 187.668 78.8777 187.63 79.2399L187.12 84.2399C187.12 84.4699 187.12 84.6399 187.12 84.7299C187.12 84.8199 187.12 84.9799 187.12 85.1999L187.63 89.5699C187.651 89.8073 187.708 90.04 187.8 90.2599L188.8 92.5199C188.893 92.7624 188.941 93.0201 188.94 93.2799C188.933 93.6303 188.84 93.9736 188.67 94.2799C188.487 94.6217 188.209 94.9031 187.87 95.0899L187.53 95.2899C187.283 95.4423 187 95.5252 186.71 95.5299V95.5999ZM181.38 93.1799C180.79 93.1799 180.11 92.7799 180.11 91.6399V90.6399C180.084 90.2075 180.178 89.7763 180.38 89.3935C180.583 89.0108 180.888 88.6912 181.26 88.4699L181.62 88.2599C181.868 88.1102 182.15 88.0275 182.44 88.0199C183.06 88.0199 183.73 88.4399 183.73 89.6399V90.6399C183.745 91.0595 183.645 91.4751 183.44 91.8418C183.236 92.2084 182.935 92.5121 182.57 92.7199L182.21 92.9199C181.955 93.0895 181.656 93.1831 181.35 93.1899L181.38 93.1799ZM181.38 84.8499C180.79 84.8499 180.11 84.4399 180.11 83.2999V82.2999C180.085 81.8677 180.179 81.4369 180.382 81.0543C180.585 80.6718 180.888 80.3521 181.26 80.1299L181.62 79.9199C181.867 79.7689 182.15 79.6861 182.44 79.6799C183.06 79.6799 183.73 80.1099 183.73 81.3099V82.3099C183.746 82.7297 183.646 83.1457 183.442 83.5126C183.237 83.8794 182.935 84.183 182.57 84.3899L182.21 84.5999C181.954 84.7659 181.655 84.8561 181.35 84.8599L181.38 84.8499Z" fill="#FF5C00"/>
<path opacity="0.3" d="M109.74 137.54C109.55 137.54 108.93 137.46 108.93 136.43V121.92C108.905 121.573 108.978 121.226 109.141 120.918C109.304 120.611 109.549 120.355 109.85 120.18L110.19 119.98C110.371 119.868 110.578 119.806 110.79 119.8C110.988 119.807 111.179 119.877 111.335 119.999C111.492 120.121 111.605 120.289 111.66 120.48L114.27 127C114.275 126.94 114.275 126.88 114.27 126.82V118.82C114.245 118.473 114.318 118.126 114.481 117.818C114.644 117.511 114.889 117.255 115.19 117.08L115.38 116.97C115.554 116.86 115.754 116.798 115.96 116.79C116.15 116.79 116.77 116.88 116.77 117.92V132.44C116.79 132.782 116.715 133.123 116.552 133.425C116.39 133.727 116.147 133.978 115.85 134.15L115.66 134.26C115.479 134.372 115.272 134.434 115.06 134.44C114.866 134.437 114.678 134.373 114.523 134.256C114.369 134.139 114.255 133.976 114.2 133.79L111.44 127C111.44 127.06 111.44 127.13 111.44 127.19V135.57C111.461 135.914 111.386 136.257 111.224 136.56C111.061 136.864 110.818 137.117 110.52 137.29L110.34 137.4C110.155 137.496 109.949 137.545 109.74 137.54ZM119.27 131.99C119.034 131.996 118.804 131.918 118.62 131.77L118.06 131.35C117.875 131.191 117.73 130.99 117.638 130.764C117.546 130.538 117.509 130.293 117.53 130.05V118.34C117.535 117.8 117.668 117.268 117.92 116.79L118.47 115.74C118.692 115.278 119.038 114.886 119.47 114.61L122.77 112.71C122.981 112.58 123.222 112.507 123.47 112.5C123.72 112.495 123.963 112.585 124.15 112.75L124.68 113.15C124.865 113.307 125.009 113.506 125.102 113.731C125.194 113.955 125.231 114.198 125.21 114.44V126.16C125.203 126.7 125.07 127.231 124.82 127.71L124.27 128.71C124.051 129.171 123.704 129.56 123.27 129.83L119.98 131.73C119.766 131.862 119.521 131.934 119.27 131.94V131.99ZM120.48 117.21C120.327 117.298 120.202 117.43 120.122 117.588C120.042 117.746 120.01 117.924 120.03 118.1C120.03 118.1 120.03 128.56 120.03 128.58L122.27 127.29C122.423 127.202 122.548 127.07 122.628 126.912C122.708 126.754 122.74 126.576 122.72 126.4C122.72 126.4 122.72 115.94 122.72 115.91L120.48 117.21ZM128.38 126.78C128.13 126.78 127.56 126.67 127.56 125.65V113.12L126.35 113.82C126.172 113.93 125.969 113.992 125.76 114C125.57 114 124.96 113.92 124.96 112.91V112.66C124.937 112.315 125.011 111.97 125.174 111.664C125.336 111.358 125.581 111.104 125.88 110.93L131.26 107.82C131.434 107.71 131.634 107.648 131.84 107.64C132.03 107.64 132.65 107.72 132.65 108.77V109C132.67 109.338 132.595 109.675 132.434 109.974C132.274 110.272 132.033 110.52 131.74 110.69L130.51 111.4C130.356 111.492 130.232 111.627 130.154 111.789C130.076 111.951 130.047 112.132 130.07 112.31V124.73C130.095 125.077 130.022 125.424 129.859 125.732C129.696 126.039 129.451 126.295 129.15 126.47L128.96 126.58C128.786 126.69 128.586 126.752 128.38 126.76V126.78ZM136.26 122.23C136.07 122.23 135.45 122.15 135.45 121.12V106.63C135.429 106.286 135.504 105.943 135.666 105.64C135.829 105.336 136.072 105.083 136.37 104.91L141.73 101.82C141.906 101.707 142.111 101.645 142.32 101.64C142.51 101.64 143.13 101.72 143.13 102.74V103C143.152 103.344 143.078 103.687 142.915 103.991C142.753 104.295 142.508 104.547 142.21 104.72L138.4 106.92C138.245 107.006 138.119 107.137 138.039 107.296C137.958 107.455 137.928 107.634 137.95 107.81V111.75L141.73 109.57C141.908 109.461 142.111 109.399 142.32 109.39C142.51 109.39 143.13 109.47 143.13 110.5V110.75C143.153 111.093 143.078 111.435 142.916 111.737C142.753 112.039 142.508 112.29 142.21 112.46L138.4 114.66C138.244 114.748 138.118 114.881 138.037 115.041C137.957 115.202 137.927 115.382 137.95 115.56V120.23C137.972 120.574 137.898 120.917 137.735 121.221C137.573 121.525 137.328 121.777 137.03 121.95L136.85 122.05C136.673 122.162 136.469 122.224 136.26 122.23ZM145.45 116.88C145.215 116.879 144.987 116.802 144.8 116.66L144.24 116.24C144.055 116.081 143.91 115.88 143.818 115.654C143.726 115.428 143.689 115.183 143.71 114.94V103.22C143.716 102.683 143.85 102.155 144.1 101.68L144.65 100.63C144.869 100.166 145.216 99.774 145.65 99.5L148.95 97.59C149.161 97.4597 149.402 97.3873 149.65 97.38C149.899 97.3825 150.139 97.4708 150.33 97.63L150.86 98.03C151.045 98.1892 151.19 98.3901 151.282 98.6161C151.374 98.8421 151.411 99.0868 151.39 99.33V111.05C151.384 111.587 151.251 112.115 151 112.59L150.45 113.59C150.228 114.052 149.882 114.444 149.45 114.72L146.16 116.62C145.946 116.751 145.701 116.823 145.45 116.83V116.88ZM146.65 102.1C146.497 102.189 146.374 102.321 146.296 102.479C146.218 102.637 146.188 102.815 146.21 102.99V113.47L148.46 112.17C148.614 112.082 148.738 111.95 148.818 111.792C148.898 111.634 148.93 111.456 148.91 111.28C148.91 111.28 148.91 100.82 148.91 100.8L146.65 102.1ZM153.91 112C153.661 111.997 153.421 111.909 153.23 111.75L152.69 111.34C152.506 111.18 152.361 110.979 152.269 110.753C152.177 110.528 152.14 110.283 152.16 110.04V96.94C152.138 96.5961 152.212 96.2528 152.375 95.9489C152.537 95.645 152.782 95.3925 153.08 95.22L153.27 95.11C153.444 95.0004 153.644 94.9384 153.85 94.93C154.04 94.93 154.66 95.01 154.66 96.04V108.59L156.91 107.29C157.064 107.198 157.188 107.063 157.266 106.901C157.344 106.739 157.374 106.558 157.35 106.38V93.94C157.329 93.5962 157.404 93.2534 157.566 92.9497C157.729 92.646 157.972 92.3934 158.27 92.22L158.46 92.11C158.638 92 158.841 91.938 159.05 91.93C159.24 91.93 159.86 92.01 159.86 93.04V106.15C159.85 106.688 159.713 107.216 159.46 107.69L158.92 108.69C158.704 109.161 158.357 109.561 157.92 109.84L154.63 111.74C154.42 111.872 154.178 111.944 153.93 111.95L153.91 112ZM161.41 107.7C161.22 107.7 160.61 107.62 160.61 106.59V92.08C160.587 91.7346 160.661 91.3897 160.824 91.084C160.986 90.7784 161.231 90.5242 161.53 90.35L161.87 90.15C162.047 90.0387 162.251 89.9766 162.46 89.97C162.659 89.97 162.852 90.0357 163.009 90.1569C163.166 90.2781 163.279 90.448 163.33 90.64L166 97.17C166 97.11 166 97.05 166 96.99V89C165.977 88.6546 166.051 88.3097 166.214 88.004C166.376 87.6984 166.621 87.4442 166.92 87.27L167.1 87.16C167.274 87.0504 167.474 86.9884 167.68 86.98C167.87 86.98 168.5 87.06 168.5 88.11V102.62C168.523 102.963 168.448 103.305 168.286 103.607C168.123 103.909 167.878 104.16 167.58 104.33L167.39 104.44C167.209 104.56 166.997 104.626 166.78 104.63C166.588 104.625 166.402 104.56 166.249 104.443C166.097 104.326 165.985 104.164 165.93 103.98L163.16 97.13C163.155 97.1966 163.155 97.2634 163.16 97.33V105.71C163.183 106.053 163.108 106.395 162.946 106.697C162.783 106.999 162.538 107.25 162.24 107.42L162.05 107.53C161.857 107.647 161.635 107.706 161.41 107.7ZM170.02 102.7C169.83 102.7 169.21 102.62 169.21 101.59V87.14C169.189 86.7962 169.264 86.4534 169.426 86.1497C169.589 85.846 169.832 85.5934 170.13 85.42L174.47 82.92C174.68 82.7884 174.922 82.7158 175.17 82.71C175.42 82.7054 175.663 82.7946 175.85 82.96L176.37 83.36C176.559 83.5144 176.707 83.7128 176.801 83.9377C176.895 84.1626 176.932 84.4072 176.91 84.65V96.32C176.902 96.8611 176.764 97.3924 176.51 97.87L175.96 98.87C175.739 99.3328 175.393 99.7243 174.96 100L170.61 102.5C170.438 102.617 170.237 102.683 170.03 102.69L170.02 102.7ZM172.15 87.38C171.998 87.4698 171.876 87.6017 171.798 87.7597C171.72 87.9177 171.689 88.095 171.71 88.27V98.75L173.96 97.45C174.113 97.3611 174.236 97.2294 174.314 97.0712C174.392 96.9129 174.422 96.7351 174.4 96.56V86.12L172.15 87.38ZM186.68 95.09C186.472 95.0882 186.271 95.016 186.109 94.8853C185.948 94.7545 185.835 94.5729 185.79 94.37L184.84 92C184.723 91.676 184.639 91.341 184.59 91L184 86.35C184 86.02 184 85.83 184 85.74C184 85.65 184 85.42 184 85.12L184.58 79.86C184.628 79.4312 184.708 79.0066 184.82 78.59L185.77 75.03C185.835 74.7416 185.956 74.4692 186.128 74.2287C186.3 73.9882 186.518 73.7846 186.77 73.63L187.11 73.43C187.287 73.3173 187.49 73.2519 187.7 73.24H187.79L187.96 73.29C188.113 73.3558 188.24 73.4692 188.323 73.6134C188.406 73.7577 188.44 73.9248 188.42 74.09C188.419 74.2933 188.388 74.4953 188.33 74.69L187.33 78.07C187.22 78.4455 187.147 78.8305 187.11 79.22L186.59 84.22C186.59 84.48 186.59 84.66 186.59 84.76C186.58 84.9299 186.58 85.1001 186.59 85.27L187.1 89.66C187.121 89.9424 187.189 90.2194 187.3 90.48L188.3 92.74C188.374 92.9209 188.411 93.1146 188.41 93.31C188.404 93.5927 188.332 93.8701 188.2 94.12C188.049 94.3814 187.831 94.5986 187.57 94.75L187.23 94.95C187.054 95.054 186.854 95.1125 186.65 95.12L186.68 95.09ZM181.35 92.68C181.16 92.68 180.55 92.6 180.55 91.61V90.61C180.524 90.26 180.596 89.9096 180.759 89.5986C180.921 89.2876 181.168 89.0282 181.47 88.85L181.83 88.64C182.004 88.5304 182.204 88.4684 182.41 88.46C182.65 88.46 183.22 88.58 183.22 89.61V90.61C183.238 90.9451 183.161 91.2784 182.998 91.572C182.835 91.8655 182.594 92.1074 182.3 92.27L181.94 92.48C181.765 92.5971 181.561 92.6629 181.35 92.67V92.68ZM181.35 84.34C181.16 84.34 180.55 84.27 180.55 83.27V82.27C180.526 81.9203 180.599 81.5708 180.762 81.2602C180.924 80.9496 181.169 80.69 181.47 80.51L181.83 80.31C182.004 80.2004 182.204 80.1384 182.41 80.13C182.65 80.13 183.22 80.24 183.22 81.28V82.28C183.248 82.6248 183.176 82.9704 183.013 83.2754C182.85 83.5805 182.602 83.832 182.3 84L181.94 84.21C181.762 84.32 181.559 84.382 181.35 84.39V84.34Z" fill="#FF5C00"/>
<path d="M110.28 136.84L110.09 136.94C109.63 137.21 109.41 137.03 109.41 136.43V121.92C109.386 121.657 109.437 121.392 109.558 121.157C109.678 120.921 109.863 120.725 110.09 120.59L110.43 120.4C110.8 120.18 111.06 120.26 111.21 120.65L113.95 127.49C113.993 127.601 114.07 127.696 114.17 127.76C114.205 127.784 114.247 127.798 114.29 127.798C114.333 127.798 114.375 127.784 114.41 127.76C114.531 127.684 114.62 127.567 114.66 127.43C114.73 127.234 114.764 127.028 114.76 126.82V118.82C114.737 118.557 114.789 118.293 114.909 118.058C115.03 117.822 115.213 117.626 115.44 117.49L115.62 117.39C116.08 117.12 116.31 117.3 116.31 117.92V132.44C116.329 132.7 116.275 132.96 116.153 133.19C116.031 133.42 115.846 133.61 115.62 133.74L115.44 133.85C115.06 134.06 114.8 133.99 114.65 133.62L111.76 126.45C111.64 126.15 111.5 126.05 111.31 126.15C111.19 126.24 111.102 126.366 111.06 126.51C110.988 126.712 110.954 126.926 110.96 127.14V135.52C110.981 135.781 110.928 136.044 110.808 136.277C110.688 136.51 110.505 136.705 110.28 136.84Z" fill="#FF5C00"/>
<path d="M124.41 127.49L123.87 128.49C123.687 128.878 123.395 129.204 123.03 129.43L119.74 131.33C119.619 131.417 119.474 131.464 119.325 131.464C119.176 131.464 119.031 131.417 118.91 131.33L118.35 130.9C118.225 130.784 118.129 130.641 118.07 130.481C118.011 130.321 117.99 130.149 118.01 129.98V118.34C118.015 117.873 118.132 117.413 118.35 117L118.89 116C119.077 115.617 119.368 115.295 119.73 115.07L123.03 113.16C123.152 113.069 123.299 113.02 123.45 113.02C123.602 113.02 123.749 113.069 123.87 113.16L124.41 113.58C124.535 113.694 124.632 113.835 124.691 113.994C124.75 114.152 124.77 114.322 124.75 114.49V126.21C124.738 126.657 124.621 127.095 124.41 127.49ZM123.2 126.4V116C123.2 115.39 122.98 115.22 122.52 115.48L120.24 116.8C120.015 116.929 119.831 117.12 119.71 117.35C119.59 117.581 119.538 117.841 119.56 118.1V128.5C119.56 129.11 119.78 129.28 120.24 129.02L122.52 127.7C122.745 127.57 122.929 127.379 123.049 127.149C123.169 126.918 123.222 126.659 123.2 126.4Z" fill="#FF5C00"/>
<path d="M126.11 111.34L131.5 108.23C131.95 107.97 132.18 108.15 132.18 108.77V109C132.198 109.256 132.143 109.511 132.023 109.737C131.903 109.964 131.722 110.152 131.5 110.28L130.27 110.99C130.044 111.124 129.861 111.319 129.741 111.552C129.62 111.786 129.568 112.048 129.59 112.31V124.73C129.612 124.993 129.559 125.257 129.439 125.492C129.319 125.727 129.136 125.923 128.91 126.06L128.72 126.17C128.27 126.43 128.04 126.25 128.04 125.63V113.23C128.04 112.6 127.81 112.43 127.36 112.69L126.11 113.41C125.66 113.67 125.43 113.5 125.43 112.91V112.66C125.408 112.398 125.46 112.136 125.581 111.902C125.701 111.669 125.884 111.474 126.11 111.34Z" fill="#FF5C00"/>
<path d="M136.61 105.33L141.97 102.23C142.43 101.97 142.65 102.14 142.65 102.74V103C142.671 103.26 142.618 103.521 142.498 103.753C142.378 103.984 142.195 104.177 141.97 104.31L138.16 106.51C137.934 106.639 137.75 106.83 137.63 107.06C137.509 107.291 137.457 107.551 137.48 107.81V111.67C137.48 112.28 137.7 112.45 138.16 112.19L142 110C142.46 109.74 142.68 109.91 142.68 110.52V110.77C142.688 111.017 142.629 111.262 142.51 111.479C142.39 111.695 142.214 111.875 142 112L138.19 114.2C137.966 114.331 137.783 114.522 137.663 114.752C137.543 114.982 137.49 115.241 137.51 115.5V120.18C137.531 120.44 137.477 120.7 137.354 120.93C137.232 121.161 137.047 121.351 136.82 121.48L136.64 121.59C136.18 121.86 135.96 121.68 135.96 121.08V106.63C135.934 106.374 135.982 106.116 136.097 105.886C136.212 105.656 136.39 105.463 136.61 105.33Z" fill="#FF5C00"/>
<path d="M150.59 112.38L150.05 113.38C149.864 113.766 149.572 114.091 149.21 114.32L145.92 116.21C145.799 116.297 145.654 116.344 145.505 116.344C145.356 116.344 145.211 116.297 145.09 116.21L144.53 115.79C144.405 115.674 144.309 115.531 144.25 115.371C144.19 115.211 144.17 115.039 144.19 114.87V103.22C144.195 102.756 144.312 102.299 144.53 101.89L145.07 100.89C145.254 100.502 145.545 100.176 145.91 99.9499L149.21 98.0399C149.331 97.9474 149.478 97.8973 149.63 97.8973C149.782 97.8973 149.93 97.9474 150.05 98.0399L150.59 98.4499C150.715 98.5655 150.811 98.7092 150.871 98.8691C150.93 99.029 150.95 99.2006 150.93 99.3699V111.09C150.919 111.541 150.802 111.982 150.59 112.38ZM149.38 111.28V100.88C149.38 100.28 149.15 100.1 148.7 100.37L146.42 101.68C146.195 101.812 146.012 102.006 145.892 102.237C145.772 102.469 145.719 102.73 145.74 102.99V113.39C145.74 113.99 145.96 114.16 146.42 113.9L148.7 112.58C148.924 112.449 149.107 112.258 149.227 112.028C149.347 111.798 149.4 111.539 149.38 111.28Z" fill="#FF5C00"/>
<path d="M158.51 92.6299L158.7 92.5299C159.15 92.2599 159.38 92.4399 159.38 93.0399V106.15C159.375 106.614 159.259 107.07 159.04 107.48L158.49 108.48C158.323 108.891 158.033 109.24 157.66 109.48L154.37 111.38C154.252 111.473 154.106 111.524 153.955 111.524C153.804 111.524 153.658 111.473 153.54 111.38L153 111C152.874 110.885 152.776 110.741 152.715 110.582C152.654 110.422 152.632 110.25 152.65 110.08V96.9399C152.631 96.6789 152.686 96.4178 152.808 96.1862C152.93 95.9547 153.114 95.762 153.34 95.6299L153.52 95.5299C153.98 95.2599 154.2 95.4399 154.2 96.0399V108.49C154.2 109.11 154.43 109.29 154.89 109.02L157.17 107.71C157.395 107.572 157.578 107.375 157.698 107.141C157.818 106.906 157.87 106.643 157.85 106.38V93.9399C157.829 93.682 157.88 93.4234 157.996 93.1923C158.113 92.9613 158.29 92.7667 158.51 92.6299Z" fill="#FF5C00"/>
<path d="M162 107L161.81 107.11C161.36 107.37 161.13 107.2 161.13 106.59V92.0799C161.109 91.8183 161.161 91.5558 161.281 91.3224C161.401 91.089 161.585 90.8941 161.81 90.7599L162.15 90.5599C162.53 90.3399 162.79 90.4299 162.94 90.8099L165.68 97.6499C165.717 97.7614 165.791 97.8568 165.89 97.9199C165.928 97.944 165.971 97.9569 166.015 97.9569C166.06 97.9569 166.103 97.944 166.14 97.9199C166.263 97.8459 166.352 97.7278 166.39 97.5899C166.456 97.3968 166.486 97.1937 166.48 96.9899V88.9999C166.458 88.7383 166.511 88.4758 166.631 88.2424C166.751 88.009 166.935 87.8141 167.16 87.6799L167.35 87.5699C167.8 87.3099 168.03 87.4899 168.03 88.1099V102.62C168.051 102.879 167.998 103.138 167.877 103.368C167.757 103.598 167.574 103.789 167.35 103.92L167.16 104.03C166.79 104.25 166.53 104.17 166.38 103.8L163.48 96.6399C163.37 96.3299 163.22 96.2299 163.04 96.3399C162.917 96.4244 162.826 96.5475 162.78 96.6899C162.712 96.8964 162.679 97.1126 162.68 97.3299V105.71C162.7 105.967 162.647 106.225 162.526 106.453C162.406 106.681 162.224 106.871 162 107Z" fill="#FF5C00"/>
<path d="M176.09 97.6599L175.54 98.6599C175.357 99.045 175.07 99.3707 174.71 99.5999L170.37 102.1C169.91 102.36 169.68 102.19 169.68 101.59V87.1399C169.659 86.88 169.713 86.6197 169.836 86.3894C169.958 86.1591 170.143 85.9685 170.37 85.8399L174.71 83.3299C174.83 83.2399 174.975 83.1912 175.125 83.1912C175.275 83.1912 175.42 83.2399 175.54 83.3299L176.09 83.7499C176.215 83.8635 176.311 84.0054 176.37 84.1637C176.43 84.322 176.45 84.4921 176.43 84.6599V96.3199C176.425 96.7873 176.309 97.2468 176.09 97.6599ZM171.92 99.1799L174.2 97.8599C174.424 97.7291 174.607 97.5377 174.727 97.3078C174.847 97.0778 174.9 96.8186 174.88 96.5599V86.2099C174.88 85.5999 174.65 85.4299 174.2 85.6899L171.92 86.9999C171.693 87.1285 171.508 87.3191 171.386 87.5494C171.263 87.7797 171.209 88.04 171.23 88.2999V98.6699C171.23 99.2699 171.46 99.4399 171.92 99.1799Z" fill="#FF5C00"/>
<path d="M182.07 83.58L181.71 83.78C181.25 84.05 181.03 83.89 181.03 83.31V82.31C181.006 82.0452 181.057 81.7789 181.177 81.5418C181.297 81.3047 181.482 81.1065 181.71 80.97L182.07 80.76C182.52 80.5 182.75 80.68 182.75 81.32V82.32C182.767 82.5726 182.711 82.8248 182.591 83.0476C182.471 83.2704 182.29 83.4549 182.07 83.58ZM182.07 91.91L181.71 92.12C181.25 92.38 181.03 92.22 181.03 91.65V90.65C181.004 90.3836 181.054 90.1152 181.174 89.8762C181.295 89.6371 181.481 89.4373 181.71 89.3L182.07 89.09C182.52 88.83 182.75 89.02 182.75 89.65V90.65C182.768 90.9028 182.713 91.1554 182.593 91.3784C182.472 91.6014 182.291 91.7858 182.07 91.91Z" fill="#FF5C00"/>
<path d="M188 93.3199C187.999 93.5227 187.947 93.7221 187.85 93.8999C187.745 94.0893 187.589 94.2452 187.4 94.3499L187.06 94.5499C186.687 94.7633 186.427 94.6633 186.28 94.2499L185.28 91.7799C185.162 91.4782 185.085 91.1621 185.05 90.8399L184.48 86.2899C184.48 85.9999 184.48 85.8199 184.48 85.7399C184.48 85.6599 184.48 85.4399 184.48 85.1599L185.05 79.9199C185.093 79.5142 185.17 79.1128 185.28 78.7199L186.28 75.1499C186.361 74.6874 186.619 74.2747 187 73.9999L187.34 73.7999C187.47 73.7065 187.631 73.6671 187.79 73.6899C187.89 73.7299 187.94 73.8499 187.94 74.0499C187.94 74.2092 187.917 74.3677 187.87 74.5199L186.87 77.8999C186.758 78.2998 186.678 78.7077 186.63 79.1199L186.12 84.1199C186.12 84.4099 186.12 84.5999 186.12 84.7099C186.12 84.8199 186.12 84.9999 186.12 85.2599L186.63 89.6599C186.667 90.0022 186.747 90.3383 186.87 90.6599L187.87 92.9099C187.944 93.0347 187.989 93.1751 188 93.3199Z" fill="#FF5C00"/>
<path opacity="0.6" d="M142 102.23L136.64 105.33C136.414 105.459 136.23 105.65 136.11 105.88C135.989 106.111 135.937 106.371 135.96 106.63V121.12C135.96 121.72 136.18 121.9 136.64 121.63L136.82 121.52C137.047 121.391 137.232 121.201 137.354 120.97C137.477 120.74 137.531 120.48 137.51 120.22V115.54C137.49 115.281 137.543 115.022 137.663 114.792C137.783 114.562 137.966 114.371 138.19 114.24L142 112C142.225 111.87 142.408 111.679 142.529 111.449C142.649 111.218 142.702 110.959 142.68 110.7V110.45C142.68 109.84 142.46 109.67 142 109.93L138.19 112.14C137.73 112.4 137.51 112.23 137.51 111.62V107.8C137.487 107.541 137.539 107.281 137.66 107.05C137.78 106.82 137.964 106.629 138.19 106.5L142 104.3C142.225 104.167 142.408 103.974 142.528 103.743C142.648 103.511 142.701 103.25 142.68 102.99V102.74C142.65 102.14 142.43 102 142 102.23ZM115.62 117.4L115.44 117.5C115.212 117.635 115.027 117.832 114.905 118.067C114.783 118.302 114.73 118.566 114.75 118.83V126.83C114.756 127.037 114.726 127.244 114.66 127.44C114.62 127.577 114.531 127.694 114.41 127.77C114.375 127.794 114.333 127.808 114.29 127.808C114.247 127.808 114.205 127.794 114.17 127.77C114.07 127.706 113.993 127.611 113.95 127.5L111.21 120.66C111.06 120.27 110.8 120.19 110.43 120.41L110.09 120.6C109.863 120.735 109.678 120.931 109.558 121.167C109.437 121.402 109.386 121.667 109.41 121.93V136.44C109.41 137.04 109.63 137.22 110.09 136.95L110.28 136.85C110.503 136.716 110.685 136.522 110.805 136.291C110.925 136.06 110.979 135.8 110.96 135.54V127.16C110.954 126.946 110.988 126.732 111.06 126.53C111.102 126.386 111.19 126.26 111.31 126.17C111.5 126.07 111.64 126.17 111.76 126.47L114.65 133.64C114.8 134.01 115.06 134.08 115.44 133.87L115.62 133.76C115.846 133.63 116.031 133.44 116.153 133.21C116.275 132.98 116.329 132.72 116.31 132.46V117.93C116.31 117.31 116.08 117.13 115.62 117.4ZM150.05 98C149.929 97.9075 149.782 97.8574 149.63 97.8574C149.478 97.8574 149.33 97.9075 149.21 98L145.91 99.91C145.545 100.136 145.254 100.462 145.07 100.85L144.53 101.85C144.311 102.26 144.195 102.716 144.19 103.18V114.9C144.17 115.069 144.19 115.241 144.25 115.401C144.309 115.561 144.405 115.704 144.53 115.82L145.09 116.24C145.211 116.327 145.356 116.374 145.505 116.374C145.654 116.374 145.799 116.327 145.92 116.24L149.21 114.35C149.572 114.121 149.863 113.796 150.05 113.41L150.59 112.41C150.808 112 150.925 111.544 150.93 111.08V99.33C150.95 99.1607 150.93 98.989 150.87 98.8291C150.811 98.6692 150.715 98.5256 150.59 98.41L150.05 98ZM149.38 111.28C149.4 111.539 149.347 111.798 149.227 112.028C149.107 112.258 148.924 112.449 148.7 112.58L146.42 113.9C145.96 114.16 145.74 113.99 145.74 113.39V103C145.719 102.74 145.771 102.479 145.892 102.247C146.012 102.016 146.195 101.822 146.42 101.69L148.7 100.38C149.15 100.11 149.38 100.29 149.38 100.89V111.28ZM123.87 113.11C123.749 113.019 123.601 112.97 123.45 112.97C123.299 112.97 123.151 113.019 123.03 113.11L119.73 115.02C119.368 115.245 119.077 115.567 118.89 115.95L118.35 116.95C118.131 117.363 118.015 117.823 118.01 118.29V130C117.99 130.169 118.01 130.341 118.07 130.501C118.129 130.661 118.225 130.804 118.35 130.92L118.91 131.35C119.031 131.437 119.176 131.484 119.325 131.484C119.474 131.484 119.619 131.437 119.74 131.35L123.03 129.45C123.395 129.224 123.686 128.898 123.87 128.51L124.41 127.51C124.628 127.1 124.745 126.644 124.75 126.18V114.44C124.77 114.272 124.749 114.102 124.69 113.944C124.631 113.785 124.535 113.644 124.41 113.53L123.87 113.11ZM123.2 126.4C123.222 126.659 123.169 126.918 123.049 127.149C122.928 127.379 122.745 127.57 122.52 127.7L120.24 129C119.78 129.26 119.56 129.09 119.56 128.48V118.1C119.537 117.841 119.589 117.581 119.71 117.35C119.83 117.12 120.014 116.929 120.24 116.8L122.52 115.48C122.98 115.22 123.2 115.39 123.2 116V126.4ZM131.5 108.23L126.11 111.34C125.884 111.474 125.701 111.669 125.581 111.902C125.46 112.136 125.408 112.398 125.43 112.66V112.91C125.43 113.5 125.66 113.67 126.11 113.41L127.36 112.69C127.81 112.43 128.04 112.6 128.04 113.23V125.65C128.04 126.27 128.27 126.45 128.72 126.19L128.91 126.08C129.136 125.943 129.319 125.747 129.439 125.512C129.559 125.277 129.611 125.013 129.59 124.75V112.33C129.568 112.068 129.62 111.806 129.741 111.572C129.861 111.339 130.044 111.144 130.27 111.01L131.5 110.3C131.722 110.172 131.903 109.984 132.023 109.757C132.143 109.531 132.198 109.276 132.18 109.02V108.77C132.18 108.15 132 108 131.5 108.23ZM158.7 92.53L158.51 92.63C158.287 92.7642 158.105 92.9576 157.985 93.1889C157.865 93.4201 157.811 93.6801 157.83 93.94V106.38C157.85 106.643 157.797 106.906 157.677 107.141C157.557 107.376 157.375 107.572 157.15 107.71L154.87 109C154.41 109.27 154.18 109.09 154.18 108.47V96C154.18 95.4 153.96 95.22 153.5 95.49L153.32 95.59C153.094 95.722 152.91 95.9147 152.788 96.1463C152.666 96.3778 152.611 96.6389 152.63 96.9V110C152.612 110.17 152.634 110.342 152.695 110.502C152.756 110.662 152.854 110.805 152.98 110.92L153.54 111.34C153.658 111.433 153.804 111.484 153.955 111.484C154.106 111.484 154.252 111.433 154.37 111.34L157.66 109.44C158.033 109.2 158.323 108.851 158.49 108.44L159.04 107.44C159.258 107.03 159.375 106.574 159.38 106.11V93C159.38 92.44 159.15 92.26 158.7 92.53ZM182.07 89.07L181.71 89.28C181.48 89.4172 181.294 89.6171 181.174 89.8561C181.053 90.0952 181.003 90.3636 181.03 90.63V91.63C181.03 92.2 181.25 92.36 181.71 92.1L182.07 91.89C182.289 91.7665 182.469 91.5837 182.59 91.3627C182.71 91.1416 182.765 90.8911 182.75 90.64V89.64C182.75 89 182.52 88.81 182.07 89.07ZM186.92 90.68C186.797 90.3583 186.717 90.0222 186.68 89.68L186.17 85.28C186.17 85.02 186.17 84.84 186.17 84.73C186.17 84.62 186.17 84.43 186.17 84.14L186.68 79.14C186.728 78.7277 186.808 78.3198 186.92 77.92L187.92 74.54C187.967 74.3877 187.99 74.2293 187.99 74.07C187.99 73.87 187.94 73.75 187.84 73.71C187.681 73.6871 187.52 73.7265 187.39 73.82L187 74C186.605 74.2541 186.325 74.6524 186.22 75.11L185.22 78.68C185.115 79.074 185.038 79.475 184.99 79.88L184.42 85.12C184.42 85.4 184.42 85.6 184.42 85.7C184.42 85.8 184.42 85.96 184.42 86.25L184.99 90.8C185.03 91.1212 185.107 91.4367 185.22 91.74L186.22 94.21C186.367 94.6166 186.627 94.7166 187 94.51L187.34 94.31C187.529 94.2053 187.685 94.0493 187.79 93.86C187.887 93.6821 187.939 93.4828 187.94 93.28C187.945 93.1465 187.921 93.0135 187.87 92.89L186.92 90.68ZM182.07 80.74L181.71 80.95C181.482 81.0865 181.297 81.2847 181.177 81.5218C181.056 81.7589 181.005 82.0252 181.03 82.29V83.29C181.03 83.87 181.25 84.03 181.71 83.76L182.07 83.56C182.29 83.4348 182.471 83.2503 182.591 83.0275C182.711 82.8047 182.766 82.5526 182.75 82.3V81.3C182.75 80.66 182.52 80.48 182.07 80.74ZM167.3 87.56L167.11 87.67C166.884 87.8041 166.701 87.999 166.581 88.2324C166.46 88.4658 166.408 88.7283 166.43 88.99V96.99C166.436 97.1937 166.405 97.3969 166.34 97.59C166.298 97.7261 166.21 97.8431 166.09 97.92C166.053 97.9441 166.009 97.9569 165.965 97.9569C165.921 97.9569 165.877 97.9441 165.84 97.92C165.741 97.8568 165.667 97.7614 165.63 97.65L162.89 90.81C162.74 90.43 162.48 90.34 162.1 90.56L161.76 90.76C161.534 90.8941 161.351 91.089 161.231 91.3224C161.11 91.5558 161.058 91.8183 161.08 92.08V106.59C161.08 107.2 161.31 107.37 161.76 107.11L162 107C162.225 106.87 162.408 106.679 162.529 106.449C162.649 106.218 162.702 105.959 162.68 105.7V97.32C162.678 97.1026 162.712 96.8864 162.78 96.68C162.825 96.5376 162.917 96.4144 163.04 96.33C163.22 96.22 163.37 96.33 163.48 96.63L166.38 103.79C166.53 104.16 166.79 104.24 167.16 104.02L167.35 103.91C167.574 103.779 167.757 103.588 167.877 103.358C167.997 103.128 168.05 102.869 168.03 102.61V88.1C168 87.48 167.75 87.3 167.3 87.56ZM175.54 83.32C175.42 83.2299 175.275 83.1812 175.125 83.1812C174.975 83.1812 174.83 83.2299 174.71 83.32L170.37 85.83C170.143 85.9585 169.958 86.1492 169.836 86.3794C169.713 86.6097 169.659 86.8701 169.68 87.13V101.62C169.68 102.22 169.91 102.39 170.37 102.13L174.71 99.63C175.069 99.4008 175.357 99.075 175.54 98.69L176.09 97.69C176.309 97.2768 176.425 96.8173 176.43 96.35V84.65C176.45 84.4822 176.429 84.312 176.37 84.1537C176.311 83.9954 176.215 83.8536 176.09 83.74L175.54 83.32ZM174.88 96.56C174.9 96.8187 174.847 97.0779 174.727 97.3078C174.607 97.5377 174.424 97.7291 174.2 97.86L171.92 99.18C171.46 99.44 171.23 99.27 171.23 98.67V88.31C171.209 88.0501 171.263 87.7897 171.386 87.5594C171.508 87.3292 171.693 87.1385 171.92 87.01L174.2 85.69C174.65 85.43 174.88 85.6 174.88 86.21V96.56Z" fill="white"/>
<path d="M336.76 378.62C332.772 376.8 328.552 375.538 324.22 374.87C321.569 374.431 318.862 374.454 316.22 374.94C314.338 375.325 312.516 375.957 310.8 376.82C304.92 379.74 304.07 382.99 303.88 385.74C303.69 388.49 305.21 392.17 310.07 395.57L393.48 454C408.662 445.912 422.772 435.954 435.48 424.36C399.24 407.52 340.1 380.05 336.76 378.62Z" fill="#263238"/>
<path d="M363.45 255.65C368.57 256.65 370.57 257 373.02 261.24C375.47 265.48 379.63 281.24 380.77 284.51C381.91 287.78 382.25 288.97 381.77 292.61C381.28 296.41 379.04 303.16 378.1 306.86C377.66 308.57 377.37 310.24 377.05 311.99C376.607 313.781 376.039 315.539 375.35 317.25C375.055 318.084 374.54 318.824 373.86 319.39C373.44 319.76 372.86 319.8 372.46 320.14C372.06 320.48 371.95 321.08 371.39 321.36C370.83 321.64 370.05 321.48 369.5 321.8C368.957 322.198 368.393 322.565 367.81 322.9C367.273 323.056 366.782 323.341 366.38 323.73C366.02 324.12 365.68 325 365.03 324.93C364.38 324.86 364.19 324.16 364.16 323.56C364.183 322.383 364.582 321.244 365.3 320.31C365.938 319.27 366.635 318.269 367.39 317.31C368.124 316.421 368.65 315.379 368.93 314.26C369.16 313.51 369.09 312.56 368.12 312.99C366.99 313.51 365.79 314.59 364.43 314.35C363.49 314.19 363.43 313.45 363.98 312.83C364.884 311.808 365.713 310.722 366.46 309.58C367.22 308.41 367.85 307.18 368.64 306.04C369.066 305.448 369.531 304.883 370.03 304.35C371.41 302.85 371.35 300.8 371.51 298.89C371.73 296.24 371.92 289.44 371.92 289.44L365.72 274.17L363.45 255.65Z" fill="#FFBDA7"/>
<path d="M371.519 298.89C371.579 295.74 371.709 292.59 371.829 289.44C369.829 284.58 367.689 279.23 365.729 274.17C367.889 279.23 369.989 284.313 372.029 289.42C371.869 292.58 371.729 295.74 371.519 298.89Z" fill="white"/>
<path d="M328.88 374.24C330.64 373.62 331.95 373.56 331.93 374.43C331.692 375.502 331.312 376.538 330.8 377.51L329.4 379.44L328.73 381.34C328.73 381.34 327.91 382.34 327.86 382.44C327.81 382.54 327.54 378.89 327.54 378.89C327.54 378.89 326.55 374.69 328.88 374.24Z" fill="#263238"/>
<path d="M347.78 300C347.78 300 343.78 304.75 341.41 313.65C339.223 321.921 337.553 330.321 336.41 338.8C335.84 342.59 334.92 347.37 333.56 354.8C332.51 360.52 329.21 378.06 329.21 378.06C329.21 378.06 331.11 381.22 333.41 382.18C336.71 383.56 339.89 382.93 340.31 379.98C340.31 379.98 342.49 376.5 345.8 367.52C347.391 363.397 348.662 359.158 349.6 354.84C349.927 352.13 350.024 349.397 349.89 346.67L363.17 323.58C364.638 321.05 366.396 318.701 368.41 316.58C369.654 315.307 370.63 313.797 371.28 312.14C373.48 306.14 370.28 298.07 370.28 298.07L347.78 300Z" fill="#263238"/>
<path d="M336.46 338.79C334.32 351.94 331.87 365.04 329.26 378.1C331.56 364.98 334.02 351.89 336.46 338.79Z" fill="white"/>
<path d="M331.28 388.21L330.57 388.07C330.62 387.8 335.94 360.42 339.66 348.92C343.38 337.42 353.13 314.58 353.23 314.35L353.9 314.64C353.8 314.86 344.07 337.69 340.36 349.15C336.65 360.61 331.34 387.94 331.28 388.21Z" fill="black"/>
<path d="M365.26 307.69H343.45C342.652 309.627 341.984 311.614 341.45 313.64C339.433 321.256 337.881 328.986 336.8 336.79C337.33 340.36 337.93 344.03 338.48 346.55C339.95 353.21 340.87 357.91 342.03 360.66C343.15 362.985 344.471 365.207 345.98 367.3C347.533 363.261 348.773 359.109 349.69 354.88C350.017 352.17 350.114 349.437 349.98 346.71L362.98 324.16L363.91 320.61C367.14 315.24 366.77 311.21 365.26 307.69Z" fill="black"/>
<path d="M311 383.11C310.61 382.93 310.13 384.46 310.09 385.01C310.05 385.56 311.09 387.8 313.82 389.45C316.55 391.1 321.24 392.02 323 392.57C324.76 393.12 326.17 394.57 328.49 395.7C330.55 396.7 333.66 397.23 335.02 396.62C335.282 396.464 335.508 396.252 335.68 396C335.853 395.748 335.969 395.461 336.02 395.16C336.39 394.03 336.36 393.77 336.22 393.73L311 383.11Z" fill="#37474F"/>
<path d="M337.19 391.23C337.01 392.385 336.628 393.499 336.06 394.52C335.662 394.819 335.209 395.036 334.726 395.158C334.244 395.28 333.742 395.305 333.25 395.23C331.132 395.078 329.093 394.367 327.34 393.17C326.001 392.299 324.556 391.603 323.04 391.1C320.954 390.597 318.905 389.949 316.91 389.16C315.421 388.531 314.036 387.682 312.8 386.64C311.8 385.7 310.87 384.64 310.97 383.32C311.194 382.489 311.67 381.748 312.333 381.198C312.995 380.648 313.812 380.317 314.67 380.25C316.312 380.167 317.955 380.415 319.5 380.98C321 381.488 322.554 381.823 324.13 381.98C325.21 382.07 326.48 382.98 327.32 382.03C328.32 380.93 328.71 378.33 329.38 377.03C329.49 376.82 329.64 376.59 329.87 376.54C330.1 376.49 330.48 376.77 330.69 377.05C331.669 378.272 332.923 379.245 334.35 379.89C338.21 381.8 340 380.79 340 380.79L340.36 379.99C340.36 379.99 341.13 380.42 340.15 382.22C339.323 383.7 338.627 385.249 338.07 386.85C337.583 388.264 337.287 389.737 337.19 391.23Z" fill="#455A64"/>
<path d="M311 383.32C312.21 378.84 317.29 380.04 320.57 381.17C321.732 381.579 322.936 381.858 324.16 382C322.923 381.944 321.699 381.726 320.52 381.35C317.28 380.35 312.41 379.07 311 383.35V383.32Z" fill="white"/>
<path d="M320.22 381.18C318.57 381.33 318.12 384 318.12 384C319.598 384.794 321.207 385.315 322.87 385.54C324.026 385.74 325.216 385.502 326.205 384.871C327.195 384.24 327.913 383.263 328.22 382.13C328.92 379.9 328.28 376.78 328.15 375.77C328.074 375.423 328.136 375.06 328.323 374.758C328.509 374.456 328.806 374.238 329.15 374.15C328.867 374.176 328.592 374.261 328.343 374.398C328.094 374.535 327.876 374.722 327.703 374.947C327.529 375.172 327.404 375.431 327.335 375.707C327.265 375.982 327.254 376.269 327.3 376.55C327.35 377.75 327.3 380.12 326.79 380.91C326.28 381.7 323.73 382.05 320.22 381.18Z" fill="#455A64"/>
<path d="M361.56 300C363.962 302.839 365.367 306.386 365.56 310.1C365.725 313.707 364.593 317.255 362.37 320.1C361.54 332.26 359.14 355.67 359.14 355.67C362.35 358.97 363.14 361.11 365.04 367.03C366.17 370.63 370.41 382.2 371.46 385.42C365.84 386.11 362.78 391.7 362.78 391.7C362.78 391.7 352.88 377.08 348.12 368.48C344.59 362.12 342.96 359.8 341.91 356.04C340.61 351.35 340.26 348.93 339.1 341.04C337.94 333.15 336.83 323.11 336.26 315.33C335.69 307.55 335.26 299.33 335.26 299.33L361.56 300Z" fill="#263238"/>
<path d="M362.82 391.67C357.05 383.17 351.39 374.57 346.43 365.57C344.798 362.946 343.397 360.185 342.24 357.32C341.314 354.376 340.606 351.368 340.12 348.32C337.568 332.073 335.952 315.693 335.28 299.26L336.12 311.56C336.88 323.87 338.41 336.12 340.37 348.28C341.08 352.28 341.82 356.41 343.64 360.09C349.477 370.951 355.879 381.499 362.82 391.69V391.67Z" fill="white"/>
<path d="M348.83 359.46C345.92 352.04 342.43 311.65 342.61 297.69H341.88C341.82 302.36 342.17 309.97 342.77 318.32C340.4 317.12 338.87 314.92 338.87 303.86H338.14C338.14 314.98 339.59 317.67 342.83 319.16C344.05 335.7 346.23 354.83 348.15 359.74C351 367 365.87 391.53 366.01 391.74L366.64 391.36C366.49 391.14 351.66 366.67 348.83 359.46Z" fill="black"/>
<path d="M362 390.43C361.11 391.69 360.1 392.58 362.63 394.26C364.63 395.55 364.7 396.59 365.31 397.97C365.707 399.315 365.87 400.719 365.79 402.12C365.79 402.12 369.15 397.05 368.17 393.78C367.19 390.51 362 390.43 362 390.43Z" fill="#455A64"/>
<path d="M372.77 387.53C373.717 388.528 374.83 389.354 376.06 389.97C376.91 390.5 377.79 390.97 378.06 391.97C378.06 392.08 377.56 392.68 377.57 392.79C377.613 393.267 377.597 393.747 377.52 394.22C377.33 395.87 376.43 397.09 376.23 398.73C376.165 399.385 376.048 400.034 375.88 400.67C375.736 401.445 375.673 402.232 375.69 403.02C375.64 403.84 375.58 404.66 375.54 405.48C375.495 405.829 375.495 406.181 375.54 406.53C375.61 406.88 370.03 409.69 367.78 410.77C367.647 410.834 367.51 410.891 367.37 410.94C365.997 411.313 364.535 411.171 363.26 410.54C358.78 408.91 359.06 407.29 359.06 407.29C359.083 406.619 359.295 405.968 359.672 405.413C360.049 404.857 360.575 404.419 361.19 404.15C361.463 403.991 361.751 403.861 362.05 403.76C363.165 403.346 364.38 403.287 365.53 403.59C365.757 402.924 365.862 402.223 365.84 401.52C365.932 400.469 365.949 399.413 365.89 398.36C365.692 397.17 365.23 396.039 364.54 395.05C363.59 393.74 362.54 392.05 361.91 391.13C361.28 390.21 361.11 387.99 364.84 385.32C368.42 382.77 371.04 383.32 371.55 384.37C371.834 385.467 372.243 386.527 372.77 387.53Z" fill="#455A64"/>
<path d="M359 407.3C359 404.21 362.94 402.66 365.51 403.57C362.88 403.08 359.38 404.3 359 407.3Z" fill="white"/>
<path opacity="0.1" d="M363.14 405.19C363.439 404.427 364.004 403.798 364.73 403.42C364.994 403.45 365.254 403.5 365.51 403.57C365.06 404 363.45 404.64 363.14 405.19Z" fill="black"/>
<path d="M378.58 392.94C379.58 393.36 378.75 394.94 377.58 397.39C376.523 399.2 376.1 401.312 376.38 403.39C376.62 405.56 376.11 406.62 375.17 407.39C374.23 408.16 367.25 411.21 367.25 411.21C368.91 409.114 369.871 406.55 370 403.88C370.38 399.1 370.84 396.03 373.22 393.94C373.96 393.341 374.838 392.936 375.773 392.761C376.709 392.587 377.674 392.648 378.58 392.94Z" fill="black"/>
<path d="M359 407.29C359.11 408.23 361.78 410.13 364.93 410.09C368.08 410.05 368.35 409.38 368.84 405.69C369.33 402 369.67 396.87 371.27 394.69C372.87 392.51 374.97 391.19 378.04 391.99C378.39 392.16 379.34 393.11 378.99 393.99C378.99 393.99 378.99 393.29 377.73 392.92C376.65 392.61 375.36 392.64 373.56 394.2C371.45 396.01 370.98 400.28 370.74 403.94C370.5 407.6 369.36 411.11 366.33 411.44C365.022 411.617 363.691 411.507 362.43 411.116C361.17 410.726 360.009 410.065 359.03 409.18C358.841 408.566 358.83 407.91 359 407.29Z" fill="#37474F"/>
<path d="M340.94 232.69C340.532 232.115 340.28 231.444 340.21 230.743C340.14 230.042 340.254 229.334 340.54 228.69C341.05 227.39 342.11 226.02 345.2 224.42C348.88 222.52 358.98 221.16 363.98 227.77C364.7 228.77 354.76 247.42 355.25 251.29C352.67 248.58 344.16 239.05 344.16 239.05C342.16 238.19 340.92 237.46 340.49 235.56C340.334 234.58 340.492 233.576 340.94 232.69Z" fill="#263238"/>
<path d="M344.16 239C341.16 238.21 339.25 235.58 340.94 232.66C339.66 235.66 341.37 237.84 344.16 239Z" fill="white"/>
<path d="M340.94 232.69C339.68 231.31 339.99 229.09 340.94 227.61C342.043 226.174 343.515 225.065 345.2 224.4C344.431 224.842 343.69 225.33 342.98 225.86C340.89 227.31 339.33 230.36 340.98 232.69H340.94Z" fill="white"/>
<path d="M342.46 238C342.46 238 339.73 242.45 340.04 242.82C340.668 243.319 341.337 243.764 342.04 244.15L342.46 238Z" fill="#F0997A"/>
<path d="M342.46 238C341.78 239.43 340.96 240.78 340.29 242.2C340.2 242.43 340.01 242.7 340.14 242.86C340.312 243.058 340.514 243.227 340.74 243.36C340.47 243.21 340.02 243.09 339.96 242.73C340.51 241.019 341.357 239.418 342.46 238Z" fill="white"/>
<path d="M345.84 229.86C344.01 230.73 342.43 232.13 341.84 236.14C341.69 237.19 342.51 238.62 342.14 240.01C340.55 246.01 342.44 251.01 343.6 252.06C344.38 252.8 348.48 253.13 350.6 252.53C353.29 251.78 359.14 249.14 361.93 244.93C365.21 239.93 365.93 233.33 362.32 230.66C357.23 226.9 347.79 228.94 345.84 229.86Z" fill="#FFBDA7"/>
<path d="M341.86 236.14C341.86 237.5 342.66 238.83 342.2 240.22C341.35 244.09 341.29 248.69 343.62 252.06C341.06 248.8 341.06 244.06 342.04 240.18C342.5 238.86 341.74 237.51 341.86 236.18V236.14Z" fill="white"/>
<path d="M359.83 247.76L360.89 255.13C362.54 255.48 362.69 257.43 361.89 258.9L362.28 260.98L351 263L349.74 252.69L359.83 247.76Z" fill="#FFBDA7"/>
<path d="M343.84 252.21C344.84 252.74 346.89 253.13 349.75 252.73L349.58 251.27C348.673 251.611 347.74 251.878 346.79 252.07C345.819 252.262 344.825 252.31 343.84 252.21Z" fill="#F0997A"/>
<path d="M343.14 232C343.064 232.865 343.29 233.73 343.781 234.447C344.272 235.164 344.996 235.688 345.83 235.93C345.385 236.888 345.218 237.952 345.35 239C345.387 239.619 345.601 240.215 345.966 240.716C346.331 241.217 346.832 241.604 347.41 241.83C348.2 242.1 348.41 241.75 348.72 241.12C349.12 240.23 349.63 238.87 351.54 239.12C353.73 239.42 354.31 242.72 353.03 244.88C352.784 245.337 352.431 245.726 352 246.016C351.57 246.305 351.076 246.485 350.56 246.54C350.276 246.536 349.996 246.471 349.74 246.35C349.483 246.23 349.254 246.056 349.07 245.84C349.07 245.84 349.21 248.72 352.92 250.43C355.24 251.664 357.928 252.019 360.49 251.43C362.215 249.514 363.84 247.512 365.36 245.43C369.36 239.59 370.21 228.9 363.36 226.98C363.03 226.89 356.8 225.98 353.76 226.68C344.39 228.68 343.16 231.55 343.14 232Z" fill="#263238"/>
<path d="M360.05 226.23C359.222 226.827 358.653 227.718 358.46 228.72C358.374 229.22 358.422 229.733 358.597 230.209C358.773 230.685 359.07 231.106 359.46 231.43C361.46 233 364.58 231.17 364.95 228.85C365.37 226.11 362.07 224.73 360.05 226.23Z" fill="#FF5C00"/>
<path d="M361.68 227.1C359.63 228.36 358.35 231.33 359.44 233.47C359.74 234.05 360.16 234.57 360.44 235.18C361.23 237.13 360.08 239.28 359.83 241.37C359.659 243.029 359.946 244.703 360.66 246.21C361.34 247.32 362.84 247.6 363.44 248.76C363.85 249.56 363.57 250.54 363.73 251.43C364.08 253.34 366.34 254.26 368.29 254.3C369.115 254.373 369.945 254.264 370.723 253.98C371.5 253.697 372.206 253.246 372.79 252.66C373.237 251.966 373.725 251.298 374.25 250.66C375.41 249.57 377.25 249.66 378.53 248.66C379.004 248.242 379.374 247.721 379.614 247.136C379.853 246.552 379.954 245.92 379.91 245.29C379.792 244.028 379.454 242.796 378.91 241.65C378.08 239.65 378.74 238.36 379.16 236.33C379.357 235.234 379.175 234.103 378.645 233.123C378.114 232.144 377.266 231.374 376.24 230.94C374.83 230.38 373.11 230.47 371.97 229.46C371.429 228.82 370.922 228.152 370.45 227.46C368.31 225.11 364.09 225.63 361.68 227.1Z" fill="#263238"/>
<path d="M369.73 261.16C369.28 259.938 368.568 258.829 367.644 257.911C366.72 256.994 365.605 256.29 364.38 255.85C363.38 255.55 360.89 255.13 360.89 255.13C361.46 256.43 360.5 257.29 358.81 257.68C356.64 258.19 353.33 258.24 351.08 256.75L350.16 256.18C347.705 256.783 345.281 257.511 342.9 258.36C342.41 258.59 339.7 259.5 335.44 269.07C333.62 273.16 334.16 277.31 337.51 280.26C337.7 282.85 336.03 288.68 336.03 288.68C335.181 293.546 334.986 298.503 335.45 303.42C335.45 303.42 337.45 308.72 353.31 308.66C365.58 308.66 371.75 302.66 371.75 302.66C371.6 299.66 366.88 289.13 367.35 285.59C368.08 280.43 372.81 271.18 369.73 261.16Z" fill="#FF5C00"/>
<path d="M342.9 258.36C346.13 260.99 346.38 264.6 345.9 269.47C345.42 274.34 340.53 289.56 339.53 292.87C338.53 296.18 337.1 297.33 334.58 300.01C332.06 302.69 326.17 306.95 323.24 309.39C321.88 310.52 320.67 311.7 319.38 312.93C317.97 314.119 316.48 315.208 314.92 316.19C314.19 316.689 313.341 316.986 312.46 317.05C311.9 317.05 311.41 316.79 310.88 316.83C310.35 316.87 309.88 317.29 309.3 317.19C308.72 317.09 308.14 316.5 307.51 316.43C306.842 316.439 306.174 316.409 305.51 316.34C304.983 316.145 304.415 316.086 303.86 316.17C303.34 316.27 302.55 316.78 302.06 316.35C301.57 315.92 301.84 315.23 302.16 314.72C302.867 313.766 303.863 313.064 305 312.72C306.125 312.255 307.277 311.858 308.45 311.53C309.553 311.234 310.577 310.698 311.45 309.96C312.07 309.49 312.57 308.67 311.54 308.46C310.32 308.21 308.71 308.38 307.74 307.39C307.08 306.71 307.47 306.08 308.28 305.9C309.611 305.606 310.918 305.211 312.19 304.72C313.49 304.22 314.72 303.59 316.03 303.13C316.728 302.904 317.439 302.721 318.16 302.58C320.16 302.17 321.31 300.48 322.55 299.03C324.29 297.03 327.28 293.21 329.31 290.47L332.38 275.62C334.32 267.56 335 260.8 342.9 258.36Z" fill="#FFBDA7"/>
<path d="M345.88 269.47C345.1 273.87 344.027 278.213 342.67 282.47C342.57 282.82 342.46 283.16 342.36 283.47C341.13 287.64 339.94 291.4 339.5 292.86C338.6 295.86 337.33 297.1 335.22 299.3L334.55 300C331.92 302.79 326.14 306.94 323.21 309.39C321.86 310.52 320.64 311.69 319.36 312.92C317.947 314.112 316.454 315.205 314.89 316.19C314.159 316.686 313.31 316.979 312.43 317.04C311.87 317.09 311.38 316.78 310.85 316.82C310.32 316.86 309.85 317.28 309.27 317.18C308.69 317.08 308.11 316.49 307.48 316.43C306.812 316.436 306.144 316.403 305.48 316.33C304.952 316.139 304.385 316.081 303.83 316.16C303.67 316.16 303.48 316.27 303.28 316.34L303.03 316.42C302.917 316.462 302.8 316.489 302.68 316.5C302.568 316.522 302.453 316.52 302.342 316.492C302.231 316.464 302.128 316.412 302.04 316.34C301.49 315.86 301.81 315.23 302.13 314.72C302.837 313.765 303.833 313.064 304.97 312.72C306.095 312.252 307.247 311.851 308.42 311.52C309.523 311.224 310.548 310.688 311.42 309.95C312.04 309.48 312.54 308.67 311.51 308.45C310.29 308.2 308.68 308.37 307.72 307.39C307.05 306.7 307.44 306.07 308.25 305.89C309.581 305.597 310.889 305.203 312.16 304.71C313.46 304.21 314.7 303.58 316 303.13C316.696 302.898 317.408 302.714 318.13 302.58C320.13 302.17 321.28 300.47 322.52 299.03C324.26 297.03 327.25 293.2 329.29 290.46L332.35 275.61C334.29 267.51 335 260.75 342.87 258.32C343.682 258.978 344.361 259.786 344.87 260.7C346.21 263.06 346.24 265.93 345.88 269.47Z" fill="#FFBDA7"/>
<path d="M302 316.35C301.813 316.161 301.702 315.91 301.688 315.645C301.673 315.38 301.756 315.119 301.92 314.91C302.67 313.46 304.3 312.84 305.74 312.35C306.697 311.9 307.704 311.564 308.74 311.35C309.723 311.046 310.646 310.576 311.47 309.96C310.69 310.659 309.779 311.197 308.79 311.54C306.793 312.03 304.874 312.797 303.09 313.82C302.43 314.35 301.28 315.46 302.04 316.31L302 316.35Z" fill="white"/>
<path d="M307.74 307.43C306.5 306.01 308.9 305.83 309.8 305.53C312.18 304.92 314.28 303.61 316.62 302.95C317.82 302.766 318.967 302.334 319.99 301.68C321.62 300.39 323.37 297.8 324.72 296.17L329.22 290.44C330.22 285.44 331.81 277.65 333 272.57C334.27 266.57 336.22 260.16 342.9 258.36C336.32 260.23 334.4 266.6 333.18 272.61C331.98 277.77 330.54 285.32 329.41 290.61L324.87 296.33C323.48 297.97 321.77 300.51 320.08 301.84C319.044 302.496 317.883 302.928 316.67 303.11C314.33 303.76 312.2 305.04 309.82 305.61C308.91 305.9 306.53 306.03 307.74 307.46V307.43Z" fill="white"/>
<path opacity="0.3" d="M365.51 323.41C365.51 323.798 365.617 324.179 365.82 324.51C366.03 324.25 366.21 323.93 366.39 323.73C366.792 323.341 367.283 323.056 367.82 322.9C368.403 322.565 368.967 322.198 369.51 321.8C370.05 321.48 370.77 321.67 371.4 321.36C372.03 321.05 372.05 320.5 372.47 320.14C372.89 319.78 373.47 319.76 373.87 319.39C374.55 318.824 375.065 318.084 375.36 317.25C376.049 315.539 376.617 313.781 377.06 311.99C377.38 310.24 377.67 308.57 378.11 306.86C379.05 303.16 381.29 296.41 381.78 292.61C382.25 288.97 381.91 287.77 380.78 284.51C379.65 281.25 375.48 265.51 373.03 261.24C370.71 257.24 368.78 256.7 364.22 255.8L363.95 255.73L363.49 255.63L363.13 255.55L362.67 255.46L362.4 255.41L361.74 255.28L361.24 255.19H361.11H360.9L360.37 251.5H360.5C361.31 250.5 362.2 249.55 363.13 248.43C363.243 248.561 363.341 248.706 363.42 248.86C363.84 249.66 363.55 250.63 363.71 251.52C364.06 253.44 366.32 254.35 368.27 254.4C369.095 254.469 369.925 254.357 370.702 254.072C371.479 253.787 372.185 253.336 372.77 252.75C373.22 252.058 373.708 251.39 374.23 250.75C375.39 249.66 377.23 249.75 378.52 248.75C378.992 248.33 379.362 247.806 379.599 247.22C379.837 246.634 379.936 246.001 379.89 245.37C379.777 244.107 379.438 242.874 378.89 241.73C378.06 239.73 378.72 238.44 379.14 236.42C379.338 235.323 379.158 234.192 378.629 233.211C378.101 232.23 377.255 231.458 376.23 231.02C374.81 230.46 373.09 230.56 371.95 229.54C371.412 228.9 370.908 228.232 370.44 227.54C368.84 225.79 366.09 225.64 363.79 226.28C363.222 225.886 362.541 225.686 361.85 225.71C358.73 223.29 354.66 222.71 351.17 222.99C349.857 223.542 348.669 224.355 347.68 225.38C344.54 228.49 342.68 233.06 343.5 237.38C343.66 238.19 343.91 238.97 344.04 239.78C344.37 241.85 343.91 243.96 343.92 246.06C343.93 248.16 344.59 250.48 346.41 251.51C347.79 252.28 349.48 252.13 351.05 252.33C353.63 252.66 353.33 254.25 353.43 256.44C353.473 256.775 353.446 257.116 353.35 257.44C353.31 257.557 353.249 257.665 353.17 257.76C352.5 258.59 350.6 258.92 349.76 259.2C348.095 259.603 346.469 260.152 344.9 260.84C344.179 261.206 343.556 261.737 343.08 262.39C341.17 265.07 340.36 268.26 339.55 271.39C338.8 274.29 338.01 277.19 337.18 280.07C336.433 282.683 335.653 285.283 334.84 287.87C334.207 290.224 333.258 292.481 332.02 294.58C330.47 296.95 328.25 298.79 326.25 300.81C321.72 305.39 317.93 311.25 311.87 313.45C309.54 314.29 307.04 314.52 304.65 315.16C303.82 315.38 302.88 315.82 302.65 316.59C302.77 316.579 302.887 316.552 303 316.51L303.25 316.43C303.45 316.36 303.64 316.29 303.8 316.25C304.356 316.171 304.922 316.229 305.45 316.42C306.114 316.493 306.782 316.526 307.45 316.52C308.08 316.58 308.55 317.16 309.24 317.27C309.93 317.38 310.24 316.95 310.82 316.91C311.4 316.87 311.82 317.18 312.4 317.13C313.281 317.069 314.129 316.776 314.86 316.28C316.424 315.295 317.917 314.202 319.33 313.01C320.61 311.78 321.83 310.61 323.18 309.48C326.11 307.03 331.89 302.88 334.52 300.09L335.19 299.39C337.29 297.2 338.56 295.97 339.46 292.96C339.9 291.5 341.09 287.74 342.32 283.57L342.63 282.57C343.092 283.132 343.333 283.843 343.31 284.57C343.68 289.43 344.84 294.35 345.63 299.19C346.19 302.64 346.76 306.09 347.02 309.57C347.22 312.09 347.25 314.57 347.29 317.13L347.53 335.13C347.53 336.13 347.53 337.13 347.58 338.19C347.593 341.023 347.787 343.852 348.16 346.66C348.486 349.135 349.025 351.577 349.77 353.96C349.95 354.54 350.14 355.12 350.35 355.7C352.42 361.45 355.67 366.7 358.8 371.88C361.975 377.415 364.824 383.132 367.33 389C367.844 390.026 368.22 391.116 368.45 392.24C368.77 394.18 368.24 396.15 368.09 398.11C367.94 400.07 368.16 401.95 368.09 403.87C368.133 405.802 367.574 407.7 366.49 409.3C365.708 410.307 364.626 411.039 363.4 411.39C364.361 411.557 365.341 411.588 366.31 411.48C366.869 411.429 367.407 411.243 367.88 410.94C370.354 409.896 372.771 408.721 375.12 407.42C376.06 406.67 376.57 405.6 376.34 403.42C376.051 401.343 376.47 399.23 377.53 397.42C378.171 396.321 378.663 395.14 378.99 393.91C379.24 393.06 378.36 392.18 377.99 392.01C377.74 391.01 376.86 390.53 375.99 390.01C374.763 389.394 373.653 388.568 372.71 387.57C372.169 386.563 371.749 385.496 371.46 384.39C371.332 384.147 371.133 383.948 370.89 383.82C369.35 379.39 366 370.18 365.01 367.05C363.15 361.12 362.32 358.98 359.11 355.68C359.11 355.68 360.88 338.4 361.91 325.83L363.15 323.66C363.28 323.43 363.41 323.21 363.55 322.99C364.938 320.726 366.561 318.615 368.39 316.69C368.57 316.5 368.75 316.28 368.93 316.07C368.66 316.52 368.4 316.97 368.1 317.41C366.91 319.23 365.42 321.18 365.51 323.41ZM371.63 302.79L371.75 302.68C371.69 302.029 371.566 301.386 371.38 300.76C371.15 299.91 370.83 298.9 370.48 297.81C370.37 297.47 370.25 297.12 370.13 296.81C369.72 295.59 369.28 294.29 368.88 293.03C368.75 292.64 368.63 292.25 368.52 291.87C368.41 291.49 368.26 291.03 368.15 290.63C368.04 290.23 367.99 290.06 367.92 289.78C367.92 289.69 367.87 289.59 367.85 289.5C367.83 289.41 367.76 289.13 367.72 288.96C367.64 288.63 367.57 288.32 367.52 288.02L367.46 287.69C367.455 287.613 367.455 287.537 367.46 287.46C367.431 287.315 367.411 287.168 367.4 287.02V286.72C367.39 286.54 367.39 286.36 367.4 286.18C367.389 286.007 367.389 285.833 367.4 285.66C367.67 284.108 368.041 282.574 368.51 281.07C368.83 279.91 369.19 278.67 369.51 277.35C370.46 279.12 371.38 280.89 372.3 282.67C373.09 284.077 373.759 285.549 374.3 287.07C375.4 290.53 375.13 294.28 374.71 297.89C374.271 302.008 373.358 306.061 371.99 309.97C372.282 307.574 372.161 305.145 371.63 302.79Z" fill="black"/>
</svg>
