<svg width="26" height="27" viewBox="0 0 26 27" fill="none" xmlns="http://www.w3.org/2000/svg">
<path d="M10.4894 20.9788C4.70744 20.9788 0 16.2714 0 10.4894C0 4.70744 4.70744 0 10.4894 0C16.2714 0 20.9788 4.70744 20.9788 10.4894C20.9788 16.2714 16.2714 20.9788 10.4894 20.9788ZM10.4894 1.53503C5.54659 1.53503 1.53503 5.55682 1.53503 10.4894C1.53503 15.422 5.54659 19.4438 10.4894 19.4438C15.4322 19.4438 19.4438 15.422 19.4438 10.4894C19.4438 5.55682 15.4322 1.53503 10.4894 1.53503Z" fill="#292D32"/>
<path d="M24.5 26L18.6464 19.7302C18.3496 19.4334 18.3496 18.9422 18.6464 18.6454C18.9432 18.3487 19.4344 18.3487 19.7312 18.6454L26 25.5C26 25.5 26 26.5 25.5 26.5C25 26.5 24.5 26 24.5 26Z" fill="#292D32"/>
</svg>
